<?xml version="1.0" encoding="UTF-8" standalone="no"?>
<!-- Created with Inkscape (http://www.inkscape.org/) -->

<svg
   xmlns:dc="http://purl.org/dc/elements/1.1/"
   xmlns:cc="http://creativecommons.org/ns#"
   xmlns:rdf="http://www.w3.org/1999/02/22-rdf-syntax-ns#"
   xmlns:svg="http://www.w3.org/2000/svg"
   xmlns="http://www.w3.org/2000/svg"
   xmlns:sodipodi="http://sodipodi.sourceforge.net/DTD/sodipodi-0.dtd"
   xmlns:inkscape="http://www.inkscape.org/namespaces/inkscape"
   width="37.160519mm"
   height="35.570469mm"
   viewBox="0 0 131.67113 126.03709"
   id="svg4293"
   version="1.1"
   inkscape:version="0.91 r13725"
   sodipodi:docname="25anos_color.svg">
  <defs
     id="defs4295" />
  <sodipodi:namedview
     id="base"
     pagecolor="#ffffff"
     bordercolor="#666666"
     borderopacity="1.0"
     inkscape:pageopacity="0.0"
     inkscape:pageshadow="2"
     inkscape:zoom="3.959798"
     inkscape:cx="40.149331"
     inkscape:cy="46.297237"
     inkscape:document-units="px"
     inkscape:current-layer="layer1"
     showgrid="false"
     fit-margin-top="0"
     fit-margin-left="0"
     fit-margin-right="0"
     fit-margin-bottom="0"
     inkscape:window-width="1280"
     inkscape:window-height="971"
     inkscape:window-x="1912"
     inkscape:window-y="-8"
     inkscape:window-maximized="1" />
  <metadata
     id="metadata4298">
    <rdf:RDF>
      <cc:Work
         rdf:about="">
        <dc:format>image/svg+xml</dc:format>
        <dc:type
           rdf:resource="http://purl.org/dc/dcmitype/StillImage" />
        <dc:title />
      </cc:Work>
    </rdf:RDF>
  </metadata>
  <g
     inkscape:label="Camada 1"
     inkscape:groupmode="layer"
     id="layer1"
     transform="translate(-265.59301,-452.2008)">
    <path
       d="m 285.77426,480.58117 0,9.16 -20.18125,0 0,73.27875 35.01,-56.955 c 3.82,-7.4325 5.7325,-15.86125 5.7325,-25.28375 0,-8.23 -3.36,-12.345 -10.08,-12.345 -6.99,0 -10.48125,4.05 -10.48125,12.145"
       style="fill:#ffffff;fill-opacity:1;fill-rule:nonzero;stroke:none"
       id="path60"
       inkscape:connector-curvature="0" />
    <path
       d="m 310.47652,571.83355 4.6975,-8.2775 0.36625,0 4.65625,8.2775 -9.72,0 z m 6.8625,-11.1225 -4.05625,0 -9.90875,17.47 3.56,0 1.96,-3.50375 12.8575,0 1.95875,3.50375 3.50375,0 -9.875,-17.47 z"
       style="fill:#ffffff;fill-opacity:1;fill-rule:evenodd;stroke:none"
       id="path64"
       inkscape:connector-curvature="0" />
    <path
       d="m 333.48426,560.71055 14.355,14.4025 0,0.36375 0,-0.36375 0,-14.4025 3.12,0 0,17.47125 -4.3925,0 -14.28375,-14.35625 0,14.35625 -3.1175,0 0,-17.47125 4.31875,0 z"
       style="fill:#ffffff;fill-opacity:1;fill-rule:evenodd;stroke:none"
       id="path68"
       inkscape:connector-curvature="0" />
    <path
       d="m 372.10489,573.66829 c -0.1475,0.80625 -0.56875,1.22375 -1.32125,1.35375 -1.19,0.2125 -3.11375,0.31375 -5.75625,0.31375 -1.84375,0 -3.41875,-0.035 -4.71625,-0.12 -1.62125,-0.1025 -2.415,-0.37125 -2.65,-0.63 -0.31125,-0.32375 -0.57625,-1.975 -0.57625,-5.375 0,-3.09625 0.325,-4.6175 0.72625,-4.97875 0.415,-0.38 2.31375,-0.67625 6.125,-0.67625 3.42375,0 5.66125,0.075 6.70875,0.24125 0.9225,0.13875 1.3575,0.575 1.48375,1.27 0.16625,0.90875 0.24,2.41 0.24,4.495 0,1.78 -0.0825,3.15125 -0.26375,4.10625 m 3.25875,-7.98125 c -0.1675,-1.61125 -0.56625,-2.84375 -1.29875,-3.55875 -0.62875,-0.62125 -1.57875,-0.99875 -2.78,-1.19625 -1.1775,-0.18375 -3.19375,-0.27625 -6.0625,-0.27625 -2.1775,0 -3.94625,0.045 -5.315,0.12875 -1.9275,0.1125 -3.36875,0.445 -4.19875,1.08375 -0.72625,0.54875 -1.18625,1.41875 -1.43125,2.52125 -0.24375,1.085 -0.3625,2.7525 -0.3625,4.99625 0,2.48375 0.12625,4.30125 0.38625,5.4125 0.17125,0.75125 0.53625,1.40875 1.09375,1.96625 0.555,0.53625 1.215,0.88875 1.95875,1.06375 1.2525,0.27875 4.13875,0.40875 8.5925,0.40875 2.5675,0 4.41875,-0.1025 5.54375,-0.28625 1.16125,-0.20375 2.085,-0.58375 2.65875,-1.205 0.99125,-1.04875 1.39125,-3.56 1.39125,-7.24 0,-1.4275 -0.0562,-2.69625 -0.17625,-3.81875"
       style="fill:#ffffff;fill-opacity:1;fill-rule:evenodd;stroke:none"
       id="path72"
       inkscape:connector-curvature="0" />
    <path
       d="m 381.09539,572.90905 c 0,0.8325 0.0237,1.27625 0.06,1.435 0.0975,0.39 0.315,0.63 0.69125,0.77875 0.54625,0.20625 2.4225,0.3325 5.7975,0.3325 2.4275,0 4.16125,-0.12 5.2175,-0.36 0.77875,-0.1675 1.23125,-0.73125 1.23125,-2.01 0,-1.2625 -0.36875,-1.78 -0.88,-1.95625 -0.35125,-0.11125 -0.875,-0.18625 -1.5825,-0.195 -0.72875,-0.0362 -3.12875,-0.0562 -7.19375,-0.0562 -2.2075,0 -3.88375,-0.34125 -4.9225,-1.13 -1.0475,-0.825 -1.51375,-2.17875 -1.51375,-3.93875 0,-1.57625 0.435,-2.80875 1.40375,-3.60625 0.8325,-0.67625 2.14125,-1.09375 3.8375,-1.2975 1.39,-0.16625 3.08625,-0.25 5.09625,-0.25 3.39875,0 5.79375,0.4175 6.99375,1.37125 0.60625,0.49125 1.01375,1.14 1.22125,1.90875 0.1125,0.47375 0.17375,1.20625 0.1875,2.13125 l 0.01,0.46375 -3.13,0 0,-0.69375 c 0,-0.75125 -0.0725,-1.16875 -0.15375,-1.325 -0.10875,-0.23125 -0.3725,-0.4825 -0.92125,-0.65875 -0.7875,-0.25 -2.20625,-0.3975 -4.31,-0.3975 -3.14,0 -5.09625,0.185 -5.945,0.51875 -0.7275,0.2675 -1.12,0.835 -1.12,1.8625 0,0.74125 0.0875,1.17625 0.2075,1.39875 0.11125,0.1775 0.35875,0.35375 0.87125,0.49125 0.71375,0.19625 1.9925,0.315 3.88375,0.33375 l 5.635,0.0288 c 1.20875,0 2.1825,0.11125 2.9,0.36875 0.76125,0.2425 1.35375,0.6875 1.795,1.33625 0.55,0.80625 0.80125,1.8525 0.80125,3.115 0,2.13125 -0.685,3.6775 -2.1925,4.43 -1.255,0.62 -4.25875,0.89875 -8.84625,0.89875 -1.57625,0 -2.64125,-0.0288 -3.21,-0.0838 -1.42375,-0.0925 -2.525,-0.3425 -3.24125,-0.7875 -0.6525,-0.4175 -1.13375,-0.9275 -1.39375,-1.54875 -0.245,-0.61125 -0.3575,-1.46375 -0.3575,-2.51125 0,-0.31625 0.008,-0.575 0.0275,-0.7775 l 0.0375,-0.4175 3.0075,0 0,0.7975 z"
       style="fill:#ffffff;fill-opacity:1;fill-rule:evenodd;stroke:none"
       id="path76"
       inkscape:connector-curvature="0" />
    <path
       d="m 381.39201,452.20104 0,17.8025 -27.97375,0 0,24.15125 c 2.41625,-3.22125 4.89875,-5.5025 7.45,-6.84625 3.22125,-1.7425 6.6425,-2.6175 10.2675,-2.6175 8.185,0 14.595,2.85375 19.22625,8.5575 2.735,3.37125 4.655,9.2325 5.775,17.5425 l 0,-58.59 -14.745,0 z"
       style="fill:#ffffff;fill-opacity:1;fill-rule:nonzero;stroke:none"
       id="path80"
       inkscape:connector-curvature="0" />
    <path
       d="m 375.96727,533.61455 c 0,-13.82375 -0.94,-22.24625 -2.82,-25.26625 -1.88,-3.02 -4.62875,-4.53 -8.25375,-4.53 -7.115,0 -10.67,4.095 -10.67,12.28 l 0,3.02125 -20.3325,0 0,-48.30875 0,-0.58375 c 0,-8.20625 5.12,-15.21875 12.3325,-18.02625 l -35.7225,0 c 2.8,1.21625 5.30375,2.84125 7.4975,4.8875 6.19375,5.84375 9.2925,14.00375 9.2925,24.48875 0,10.7525 -1.14,21.1025 -6.28,31.0575 l -24.6125,38.7175 c -7.94625,3.495 -15.14875,7.24125 -21.34875,10.46125 12.54,-4.43125 27.21875,-8.38375 43.08125,-11.37 28.77875,-5.42125 54.96125,-6.4575 72.09125,-3.65875 l 0,-5.42625 c -4.1575,-0.89875 -8.98125,-1.68875 -14.30375,-2.2575 0.0312,-1.7275 0.0488,-3.55625 0.0488,-5.48625"
       style="fill:#ffffff;fill-opacity:1;fill-rule:nonzero;stroke:none"
       id="path84"
       inkscape:connector-curvature="0" />
  </g>
</svg>
