<?xml version="1.0" encoding="UTF-8" standalone="no"?>
<!-- Created with Inkscape (http://www.inkscape.org/) -->

<svg
   xmlns:dc="http://purl.org/dc/elements/1.1/"
   xmlns:cc="http://creativecommons.org/ns#"
   xmlns:rdf="http://www.w3.org/1999/02/22-rdf-syntax-ns#"
   xmlns:svg="http://www.w3.org/2000/svg"
   xmlns="http://www.w3.org/2000/svg"
   xmlns:sodipodi="http://sodipodi.sourceforge.net/DTD/sodipodi-0.dtd"
   xmlns:inkscape="http://www.inkscape.org/namespaces/inkscape"
   id="svg2"
   version="1.1"
   inkscape:version="0.91 r13725"
   xml:space="preserve"
   width="1073.6226"
   height="765.35376"
   viewBox="0 0 1073.6226 765.35376"
   sodipodi:docname="on2_b&amp;w.svg"><metadata
     id="metadata8"><rdf:RDF><cc:Work
         rdf:about=""><dc:format>image/svg+xml</dc:format><dc:type
           rdf:resource="http://purl.org/dc/dcmitype/StillImage" /><dc:title></dc:title></cc:Work></rdf:RDF></metadata><defs
     id="defs6"><clipPath
       clipPathUnits="userSpaceOnUse"
       id="clipPath20"><path
         d="m 0,612.283 858.898,0 L 858.898,0 0,0 0,612.283 Z"
         id="path22"
         inkscape:connector-curvature="0" /></clipPath></defs><sodipodi:namedview
     pagecolor="#ffffff"
     bordercolor="#666666"
     borderopacity="1"
     objecttolerance="10"
     gridtolerance="10"
     guidetolerance="10"
     inkscape:pageopacity="0"
     inkscape:pageshadow="2"
     inkscape:window-width="1280"
     inkscape:window-height="971"
     id="namedview4"
     showgrid="false"
     inkscape:zoom="0.61670828"
     inkscape:cx="490.05091"
     inkscape:cy="312.90751"
     inkscape:window-x="1912"
     inkscape:window-y="-8"
     inkscape:window-maximized="1"
     inkscape:current-layer="g10" /><g
     id="g10"
     inkscape:groupmode="layer"
     inkscape:label="novo_norte_p&amp;b"
     transform="matrix(1.25,0,0,-1.25,0,765.35375)"><g
       id="g12"
       transform="translate(340.7227,229.172)"
       style="fill:#dadede;fill-opacity:1"><path
         d="m 0,0 39.057,0 0,164.131 0.993,0 L 146.728,0 l 43.323,0 0,223.203 -39.036,0 0,-164.43 -0.662,0 L 43.345,223.203 0,223.203 0,0 Z"
         style="fill:#dadede;fill-opacity:1;fill-rule:nonzero;stroke:none"
         id="path14"
         inkscape:connector-curvature="0" /></g><g
       id="g16"><g
         id="g18"
         clip-path="url(#clipPath20)"><g
           id="g24"
           transform="translate(100.2144,341.2138)"><path
             d="m 0,0 c 0,63.726 51.692,115.412 115.424,115.412 63.757,0 115.429,-51.686 115.429,-115.412 0,-63.748 -51.672,-115.403 -115.429,-115.403 C 51.692,-115.403 0,-63.748 0,0 m 30.085,-0.259 c 0,46.95 38.063,85.024 85.034,85.024 46.944,0 85.003,-38.074 85.003,-85.024 0,-46.95 -38.059,-85.013 -85.003,-85.013 -46.971,0 -85.034,38.063 -85.034,85.013"
             style="fill:#dadede;fill-opacity:1;fill-rule:evenodd;stroke:none"
             id="path26"
             inkscape:connector-curvature="0" /></g><g
           id="g28"
           transform="translate(181.4628,470.445)"><path
             d="M 0,0 60.861,-133.68 8.663,-146.702 0,0 Z"
             style="fill:#676164;fill-opacity:1;fill-rule:nonzero;stroke:none"
             id="path30"
             inkscape:connector-curvature="0" /></g><g
           id="g32"
           transform="translate(754.2718,261.6718)"><path
             d="m 0,0 -108.623,0 c 6.362,19.736 33.447,33.44 59.248,51.283 25.492,17.833 49.685,39.813 49.685,75.176 0,28.663 -17.19,68.486 -71.665,68.486 -49.706,0 -76.77,-36.627 -76.77,-86.008 l 36.322,0 c 0.946,31.217 9.542,55.742 38.215,55.742 31.216,0 37.909,-23.572 37.598,-39.501 C -36.626,90.454 -74.23,72.932 -103.213,51.914 -133.147,31.847 -151.946,4.137 -152.277,-32.5 L 0,-32.5 0,0"
             style="fill:#676164;fill-opacity:1;fill-rule:nonzero;stroke:none"
             id="path34"
             inkscape:connector-curvature="0" /></g><path
           d="m 544.867,272.181 44.291,0 0,-43.009 -44.291,0 0,43.009 z"
           style="fill:#676164;fill-opacity:1;fill-rule:nonzero;stroke:none"
           id="path36"
           inkscape:connector-curvature="0" /><g
           id="g38"
           transform="translate(352.1883,160.5945)"><path
             d="M 0,0 C 0,7.51 4.065,9.257 6.713,9.257 9.366,9.257 13.405,7.51 13.405,0 13.405,-7.51 9.366,-9.257 6.713,-9.257 4.065,-9.257 0,-7.51 0,0 m -10.405,0 c 0,-10.302 6.867,-17.677 17.118,-17.677 10.251,0 17.097,7.375 17.097,17.677 0,10.303 -6.846,17.667 -17.097,17.667 -10.251,0 -17.118,-7.364 -17.118,-17.667"
             style="fill:#676164;fill-opacity:1;fill-rule:evenodd;stroke:none"
             id="path40"
             inkscape:connector-curvature="0" /></g><g
           id="g42"
           transform="translate(402.0024,143.725)"><path
             d="m 0,0 9.831,0 0,18.432 0.109,0 L 20.279,0 l 10.12,0 0,33.719 -9.831,0 0,-18.039 -0.113,0 L 10.628,33.719 0,33.719 0,0 Z"
             style="fill:#676164;fill-opacity:1;fill-rule:nonzero;stroke:none"
             id="path44"
             inkscape:connector-curvature="0" /></g><g
           id="g46"
           transform="translate(450.1155,160.5945)"><path
             d="M 0,0 C 0,7.51 4.065,9.257 6.718,9.257 9.345,9.257 13.431,7.51 13.431,0 13.431,-7.51 9.345,-9.257 6.718,-9.257 4.065,-9.257 0,-7.51 0,0 m -10.38,0 c 0,-10.302 6.848,-17.677 17.098,-17.677 10.251,0 17.098,7.375 17.098,17.677 0,10.303 -6.847,17.667 -17.098,17.667 C -3.532,17.667 -10.38,10.303 -10.38,0"
             style="fill:#676164;fill-opacity:1;fill-rule:evenodd;stroke:none"
             id="path48"
             inkscape:connector-curvature="0" /></g><g
           id="g50"
           transform="translate(509.9632,177.4439)"><path
             d="m 0,0 -10.69,0 -5.436,-20.448 -0.088,0 -5.523,20.448 -10.494,0 10.05,-33.719 11.641,0 L 0,0 Z"
             style="fill:#676164;fill-opacity:1;fill-rule:nonzero;stroke:none"
             id="path52"
             inkscape:connector-curvature="0" /></g><g
           id="g54"
           transform="translate(524.1445,160.5945)"><path
             d="M 0,0 C 0,7.51 4.064,9.257 6.717,9.257 9.365,9.257 13.43,7.51 13.43,0 13.43,-7.51 9.365,-9.257 6.717,-9.257 4.064,-9.257 0,-7.51 0,0 m -10.38,0 c 0,-10.302 6.848,-17.677 17.097,-17.677 10.251,0 17.099,7.375 17.099,17.677 0,10.303 -6.848,17.667 -17.099,17.667 C -3.532,17.667 -10.38,10.303 -10.38,0"
             style="fill:#676164;fill-opacity:1;fill-rule:evenodd;stroke:none"
             id="path56"
             inkscape:connector-curvature="0" /></g><g
           id="g58"
           transform="translate(573.9841,143.725)"><path
             d="m 0,0 9.831,0 0,18.432 0.089,0 L 20.258,0 l 10.116,0 0,33.719 -9.831,0 0,-18.039 -0.109,0 -9.81,18.039 L 0,33.719 0,0 Z"
             style="fill:#676164;fill-opacity:1;fill-rule:nonzero;stroke:none"
             id="path60"
             inkscape:connector-curvature="0" /></g><g
           id="g62"
           transform="translate(622.0972,160.5945)"><path
             d="M 0,0 C 0,7.51 4.044,9.257 6.697,9.257 9.345,9.257 13.41,7.51 13.41,0 13.41,-7.51 9.345,-9.257 6.697,-9.257 4.044,-9.257 0,-7.51 0,0 m -10.405,0 c 0,-10.302 6.853,-17.677 17.102,-17.677 10.251,0 17.119,7.375 17.119,17.677 0,10.303 -6.868,17.667 -17.119,17.667 -10.249,0 -17.102,-7.364 -17.102,-17.667"
             style="fill:#676164;fill-opacity:1;fill-rule:evenodd;stroke:none"
             id="path64"
             inkscape:connector-curvature="0" /></g><g
           id="g66"
           transform="translate(663.5851,169.4281)"><path
             d="m 0,0 4.882,0 c 3.957,0 5.146,-1.241 5.146,-3.362 0,-3.02 -2.648,-3.351 -4.592,-3.351 L 0,-6.713 0,0 m -10.38,-25.703 10.38,0 0,11.76 5.544,0 c 4.091,0 4.375,-3.351 4.665,-6.557 0.15,-1.76 0.331,-3.497 0.858,-5.203 l 10.386,0 c -0.953,1.561 -0.973,5.574 -1.128,7.219 -0.377,4.211 -2.121,7.345 -4.949,8.409 3.444,1.283 5.036,4.976 5.036,8.462 0,6.381 -5.104,9.629 -10.999,9.629 l -19.793,0 0,-33.719 z"
             style="fill:#676164;fill-opacity:1;fill-rule:evenodd;stroke:none"
             id="path68"
             inkscape:connector-curvature="0" /></g><g
           id="g70"
           transform="translate(698.1376,143.725)"><path
             d="m 0,0 10.405,0 0,25.093 9.434,0 0,8.626 -29.293,0 0,-8.626 9.454,0 L 0,0 Z"
             style="fill:#676164;fill-opacity:1;fill-rule:nonzero;stroke:none"
             id="path72"
             inkscape:connector-curvature="0" /></g><g
           id="g74"
           transform="translate(724.7102,143.725)"><path
             d="m 0,0 28.435,0 0,8.647 -18.03,0 0,4.209 15.909,0 0,8.027 -15.909,0 0,4.21 17.522,0 0,8.626 L 0,33.719 0,0 Z"
             style="fill:#676164;fill-opacity:1;fill-rule:nonzero;stroke:none"
             id="path76"
             inkscape:connector-curvature="0" /></g></g></g></g></svg>