<?xml version="1.0" encoding="UTF-8" standalone="no"?>
<!-- Created with Inkscape (http://www.inkscape.org/) -->

<svg
   xmlns:dc="http://purl.org/dc/elements/1.1/"
   xmlns:cc="http://creativecommons.org/ns#"
   xmlns:rdf="http://www.w3.org/1999/02/22-rdf-syntax-ns#"
   xmlns:svg="http://www.w3.org/2000/svg"
   xmlns="http://www.w3.org/2000/svg"
   xmlns:sodipodi="http://sodipodi.sourceforge.net/DTD/sodipodi-0.dtd"
   xmlns:inkscape="http://www.inkscape.org/namespaces/inkscape"
   id="svg2"
   version="1.1"
   inkscape:version="0.91 r13725"
   xml:space="preserve"
   width="508.39975"
   height="517.52472"
   viewBox="0 0 508.39975 517.52473"
   sodipodi:docname="pmelider_color.svg"><metadata
     id="metadata8"><rdf:RDF><cc:Work
         rdf:about=""><dc:format>image/svg+xml</dc:format><dc:type
           rdf:resource="http://purl.org/dc/dcmitype/StillImage" /><dc:title></dc:title></cc:Work></rdf:RDF></metadata><defs
     id="defs6"><clipPath
       clipPathUnits="userSpaceOnUse"
       id="clipPath16"><path
         d="m 0,492.214 406.72,0 L 406.72,0 0,0 0,492.214 Z"
         id="path18"
         inkscape:connector-curvature="0" /></clipPath></defs><sodipodi:namedview
     pagecolor="#ffffff"
     bordercolor="#666666"
     borderopacity="1"
     objecttolerance="10"
     gridtolerance="10"
     guidetolerance="10"
     inkscape:pageopacity="0"
     inkscape:pageshadow="2"
     inkscape:window-width="1280"
     inkscape:window-height="971"
     id="namedview4"
     showgrid="false"
     inkscape:zoom="0.76714598"
     inkscape:cx="250.45365"
     inkscape:cy="240.11736"
     inkscape:window-x="1912"
     inkscape:window-y="-8"
     inkscape:window-maximized="1"
     inkscape:current-layer="g10"
     fit-margin-top="0"
     fit-margin-left="0"
     fit-margin-right="0"
     fit-margin-bottom="0" /><g
     id="g10"
     inkscape:groupmode="layer"
     inkscape:label="PME_lider"
     transform="matrix(1.25,0,0,-1.25,-2.5e-4,615.26685)"><g
       id="g12"
       transform="matrix(1,0,0,1.0179479,0,-8.8342159)"><g
         id="g14"
         clip-path="url(#clipPath16)"><g
           id="g20"
           transform="translate(90,20.3174)" /><g
           id="g24"
           transform="translate(406.7202,123.3115)"><path
             d="M 0,2.3986818e-6 C 0,-20.885001 -16.93,-37.817998 -37.822,-37.817998 l -331.076,0 c -20.891,0 -37.822,16.932997 -37.822,37.8180003986818 L -406.72,331.078 c 0,20.89101 16.931,37.824 37.822,37.824 l 331.076,0 C -16.93,368.902 0,351.96901 0,331.078 L 0,2.3986818e-6 Z"
             style="fill:#0f5792;fill-opacity:1;fill-rule:nonzero;stroke:none"
             id="path26"
             inkscape:connector-curvature="0" /></g><g
           id="g28"
           transform="translate(292.1597,466.0772)"><path
             d="M -12.318188,8.3447088 C -34.681676,-31.332073 -55.32909,-71.837919 -77.48588,-111.62005 c -14.49998,-26.03734 -29.26121,-51.97012 -44.91257,-77.43854 -6.34885,-10.33211 -12.85955,-20.58803 -19.77574,-30.60812 -2.73639,-3.96379 -5.55283,-7.88138 -8.49768,-11.71713 -1.19097,-1.55035 -2.41359,-3.08043 -3.66524,-4.59105 4.87202,5.87882 0.34919,0.46519 -1.0212,-0.99277 -0.95259,-1.01384 -1.94653,-1.99364 -2.98708,-2.93131 -0.44067,-0.39873 -0.89893,-0.77963 -1.36423,-1.15241 -2.48132,-1.98799 4.61254,3.08933 2.04151,1.44984 -4.15692,-2.65251 -8.59444,-4.9282 -13.12167,-6.99154 -1.1241,-0.51299 -2.26757,-0.98952 -3.41016,-1.46606 -3.98453,-1.66137 3.84291,1.42068 -0.19438,-0.06 -2.63437,-0.96602 -5.32678,-1.79267 -8.03855,-2.55447 -2.2403,-0.6297 -4.51578,-1.14512 -6.80007,-1.61679 -1.51641,-0.31202 -9.18466,-1.28856 -2.79358,-0.5746 -2.07142,-0.23178 -4.15868,-0.33146 -6.24418,-0.37117 -1.83483,-0.0365 -9.65873,0.78287 -2.76542,-0.13616 -1.73192,0.23098 -3.42862,0.63214 -5.09632,1.11273 -1.39151,0.40034 -4.1499,1.74403 1.35719,-0.58837 -0.71333,0.30229 -1.38886,0.67184 -2.06175,1.04301 -2.73198,1.5074 3.68723,-2.85026 1.28068,-0.97818 -0.5726,0.44573 -1.07836,0.95711 -1.58149,1.46606 3.69425,-3.74497 2.00985,-2.5026 1.12411,-1.1816 -2.28516,3.40541 1.24461,-3.38838 0.28147,-0.75937 -0.26564,0.72776 -0.4266,1.48308 -0.58933,2.23353 1.07749,-4.976 0.40549,-3.13633 0.32544,-1.6792 -0.0413,0.76018 -0.0149,1.52279 0.037,2.28135 0.20934,3.06016 -1.05023,-5.52142 -0.263,-1.9434 0.18383,0.83231 0.45562,1.64598 0.76083,2.44749 1.0687,2.80649 -2.50242,-4.90713 -0.73796,-1.70676 0.36591,0.66212 0.78985,1.29587 1.22966,1.91828 2.14972,3.04394 -3.23776,-3.63071 -1.13115,-1.28858 0.6421,0.7156 1.34401,1.38339 2.06263,2.03334 0.64298,0.58109 1.32466,1.12569 2.01513,1.65815 2.63877,2.03659 -4.59231,-3.09097 -1.09243,-0.80962 1.79347,1.16863 3.696,2.19058 5.63285,3.1412 0.95612,0.47005 1.93247,0.90526 2.91231,1.33153 0.50578,0.21963 1.01594,0.42953 1.52696,0.6378 2.53234,1.03816 -4.87026,-1.86478 -2.28339,-0.88416 2.41974,0.91658 4.89313,1.71161 7.38413,2.44911 5.32853,1.57706 10.78813,2.7692 16.27499,3.77252 2.87272,0.52515 5.76129,0.97414 8.65513,1.38339 0.74589,0.10622 1.49266,0.20504 2.23855,0.30391 3.22279,0.42791 -5.10336,-0.61755 -1.85769,-0.22611 1.80228,0.21802 3.60718,0.40927 5.41386,0.59242 13.8957,1.40284 27.90401,1.81778 41.87535,1.67677 14.83863,-0.14992 29.66845,-1.03572 44.418243,-2.51962 1.766209,-0.1783 3.531539,-0.37035 5.29599,-0.56729 1.6158,-0.17991 8.247883,-0.9952 1.249892,-0.1248 3.753196,-0.46681 7.497595,-0.98871 11.235839,-1.5471 6.961048,-1.03897 13.890431,-2.2619 20.777592,-3.65745 8.174879,-1.6557 16.281149,-3.61125 24.265156,-5.92503 3.645007,-1.0576 7.25483,-2.21407 10.82859,-3.45889 1.687926,-0.58836 3.36178,-1.20914 5.026838,-1.84777 -6.983038,2.67766 -0.215499,0.0341 1.493537,-0.71073 2.870971,-1.24886 5.678611,-2.62173 8.411487,-4.10966 1.258688,-0.68563 2.490109,-1.4134 3.704818,-2.16385 1.55335,-0.95953 6.062989,-4.24499 0.01935,0.13048 1.95796,-1.41823 3.787499,-2.98478 5.453437,-4.68911 3.183224,-3.25792 -2.803243,3.68499 -0.523354,0.67427 0.6808,-0.90038 1.272761,-1.85344 1.804032,-2.83405 4.4683,-8.2558 16.939076,-10.50473 25.147382,-6.07576 9.061502,4.89173 11.065199,14.90939 6.59338,23.17004 -4.675003,8.63671 -13.540358,15.20438 -22.21572,20.22983 -10.201446,5.90881 -21.78384,10.01605 -33.172727,13.50898 -27.665636,8.48676 -57.10012,12.49027 -86.05699,14.83402 -29.673742,2.40129 -59.449492,2.1225 -88.960492,-1.70027 -11.1734,-1.44662 -22.35471,-3.60478 -32.92117,-7.31329 -10.32283,-3.62421 -20.90689,-8.3344 -28.35172,-16.11692 -9.29987,-9.72185 -12.53411,-21.34821 -9.78364,-34.04593 4.47797,-20.67071 29.6192,-27.8835 49.57614,-25.93847 20.62455,2.00986 42.35737,9.24938 58.30954,21.73236 6.545,5.12107 11.54986,12.19931 16.39637,18.64219 14.81577,19.69821 27.336672,40.93943 39.755562,61.96429 15.562525,26.34691 30.458324,53.02609 45.146539,79.79281 17.478265,31.849694 33.989863,64.179974 51.841073,95.8513772 4.617829,8.19339583 2.363449,18.3358632 -6.593381,23.1700478 -8.314698,4.488154 -20.534794,2.109556 -25.147346,-6.0749234"
             style="fill:#ffffff;fill-opacity:1;fill-rule:nonzero;stroke:none"
             id="path30"
             inkscape:connector-curvature="0" /></g></g></g><path
       d="m 115.24359,123.70632 -0.1359,0 -8.15752,33.53015 -18.166559,0 0,-50.29269 11.602329,0 0,38.17694 0.1351,0 9.94428,-38.17694 9.41585,0 9.94908,38.17694 0.1343,0 0,-38.17694 11.60632,0 0,50.29269 -18.17534,0 -8.15194,-33.53015 z m 47.20955,4.08556 23.21744,0 0,10.13665 -23.21744,0 0,8.80961 25.40552,0 0,10.49833 -37.74013,0 0,-50.29269 38.40447,0 0,11.26587 -26.06986,0 0,9.58223 z m -98.533025,6.05618 -8.29023,0 0,12.89008 8.29023,0 c 3.783767,0 6.625788,-1.90354 6.625788,-6.62078 0,-4.57971 -2.77247,-6.2693 -6.625788,-6.2693 m 1.861105,23.38841 -22.48755,0 0,-50.29269 12.336215,0 0,16.76254 10.151335,0 c 10.408756,0 17.106494,4.85648 17.106494,17.3212 0,11.90264 -8.287832,16.20895 -17.106494,16.20895 m 167.17725,-6.45946 4.70073,0 11.16583,11.0154 -8.60201,0 -7.26455,-11.0154 z m 73.41291,-20.44141 c 0.66194,2.84002 1.82033,4.96091 3.47838,6.36778 1.65804,1.40344 3.84772,2.11154 6.57542,2.11154 2.8796,0 5.14762,-0.72932 6.80327,-2.17438 1.65485,-1.44251 2.64775,-3.54472 2.98193,-6.30494 l -19.839,0 z m 9.89871,15.95679 c -5.57691,0 -10.14414,-1.94514 -13.69607,-5.83033 -3.55113,-3.8869 -5.32909,-8.85037 -5.32909,-14.88531 0,-6.28373 1.71881,-11.30409 5.15881,-15.07041 3.43841,-3.76463 8.06159,-5.64694 13.86955,-5.64694 4.05078,0 7.57952,0.94838 10.58703,2.84512 3.00351,1.89845 5.52735,4.78007 7.56354,8.65593 l -6.99274,4.15094 c -1.32867,-2.65919 -2.87879,-4.58819 -4.66555,-5.78109 -1.78116,-1.19545 -4.01081,-1.79401 -6.68734,-1.79401 -3.00831,0 -5.41303,1.01204 -7.22298,3.03106 -1.80834,2.01986 -2.81644,4.83017 -3.0211,8.43772 l 28.96385,0 0,1.66496 c 0,6.38646 -1.62847,11.35248 -4.8886,14.89805 -3.26013,3.55153 -7.80577,5.32431 -13.63931,5.32431 m 47.91705,-0.45933 c -1.13521,0.30396 -2.2888,0.45933 -3.45839,0.45933 -2.1625,0 -3.97723,-0.613 -5.43861,-1.82967 -1.46779,-1.21582 -2.64296,-3.09559 -3.53514,-5.64185 l 0,6.1708 -8.30782,0 0,-38.53524 8.30782,0 0,16.89583 c 0,5.52044 0.59958,9.45488 1.79235,11.79822 1.19916,2.3374 3.17299,3.50908 5.92148,3.50908 1.01769,0 1.94185,-0.12737 2.77167,-0.38292 0.82583,-0.25896 1.59569,-0.65716 2.30719,-1.19884 l 2.97953,7.42992 c -1.09444,0.58243 -2.20967,1.02308 -3.34008,1.32534 m -86.60052,-29.54987 c -1.85632,-2.39769 -4.28422,-3.59397 -7.28693,-3.59397 -3.15621,0 -5.59771,1.10968 -7.3261,3.33161 -1.7276,2.22448 -2.5942,5.38036 -2.5942,9.47526 0,4.06349 0.89378,7.23973 2.68933,9.52958 1.79555,2.29326 4.25304,3.4386 7.38526,3.4386 3.12422,0 5.56173,-1.11309 7.30292,-3.33417 1.74198,-2.22447 2.61498,-5.32686 2.61498,-9.31223 0,-3.95567 -0.92896,-7.13531 -2.78526,-9.53468 m 2.55581,22.38315 c -0.96812,2.45712 -2.50306,4.34199 -4.60159,5.65374 -2.10174,1.31431 -4.62798,1.97231 -7.58033,1.97231 -4.83583,0 -8.7531,-1.8925 -11.76061,-5.66902 -3.00271,-3.77737 -4.50327,-8.73828 -4.50327,-14.88531 0,-6.46966 1.46618,-11.56643 4.40813,-15.2937 2.93956,-3.72048 6.97035,-5.58496 12.0852,-5.58496 2.54382,0 4.80624,0.54339 6.77768,1.62335 1.97062,1.07914 3.69662,2.7339 5.17479,4.94904 l 0,-4.97536 8.30702,0 0,62.91788 -8.30702,0 0,-30.70797 z m -66.43616,-32.20991 8.30542,0 0,62.91788 -8.30542,0 0,-62.91788 z m 20.52092,0 8.30542,0 0,38.48854 -8.30542,0 0,-38.48854 z"
       style="fill:#ab9d84;fill-opacity:1;fill-rule:nonzero;stroke:none"
       id="path22"
       inkscape:connector-curvature="0" /></g></svg>