<?xml version="1.0" encoding="UTF-8" standalone="no"?>
<!-- Generator: Adobe Illustrator 17.1.0, SVG Export Plug-In . SVG Version: 6.00 Build 0)  -->

<svg
   xmlns:dc="http://purl.org/dc/elements/1.1/"
   xmlns:cc="http://creativecommons.org/ns#"
   xmlns:rdf="http://www.w3.org/1999/02/22-rdf-syntax-ns#"
   xmlns:svg="http://www.w3.org/2000/svg"
   xmlns="http://www.w3.org/2000/svg"
   xmlns:sodipodi="http://sodipodi.sourceforge.net/DTD/sodipodi-0.dtd"
   xmlns:inkscape="http://www.inkscape.org/namespaces/inkscape"
   version="1.1"
   id="Capa_1"
   x="0px"
   y="0px"
   viewBox="0 0 198.511 198.511"
   style="enable-background:new 0 0 198.511 198.511;"
   xml:space="preserve"
   inkscape:version="0.91 r13725"
   sodipodi:docname="cat2_24.svg"><metadata
     id="metadata39"><rdf:RDF><cc:Work
         rdf:about=""><dc:format>image/svg+xml</dc:format><dc:type
           rdf:resource="http://purl.org/dc/dcmitype/StillImage" /><dc:title></dc:title></cc:Work></rdf:RDF></metadata><defs
     id="defs37" /><sodipodi:namedview
     pagecolor="#ffffff"
     bordercolor="#666666"
     borderopacity="1"
     objecttolerance="10"
     gridtolerance="10"
     guidetolerance="10"
     inkscape:pageopacity="0"
     inkscape:pageshadow="2"
     inkscape:window-width="1280"
     inkscape:window-height="971"
     id="namedview35"
     showgrid="false"
     inkscape:zoom="1.188851"
     inkscape:cx="99.255501"
     inkscape:cy="99.255501"
     inkscape:window-x="1912"
     inkscape:window-y="-8"
     inkscape:window-maximized="1"
     inkscape:current-layer="Capa_1" /><path
     d="M198.487,82.418c-0.436,15.134-6.859,29.652-18.087,40.879c-0.977,0.977-2.256,1.465-3.536,1.465  c-1.28,0-2.559-0.488-3.536-1.465L75.213,25.182c-0.938-0.938-1.464-2.209-1.464-3.535s0.527-2.598,1.464-3.535  C86.892,6.432,101.987,0,117.716,0c14.821,0,28.865,5.881,39.544,16.561l0.323,0.323c1.858,1.858,1.96,4.838,0.235,6.819  l-17.876,20.524l14.341,14.341l20.525-17.876c1.981-1.726,4.961-1.624,6.819,0.235l0.323,0.323  C193.059,52.358,198.932,66.979,198.487,82.418z M26.729,118.343L9.248,137.134l71.945,33.695l19.29-17.944L26.729,118.343z   M51.365,91.859l-17.481,18.792l74.494,34.89l19.29-17.945L51.365,91.859z M141.942,107.243L91.268,56.569  c-0.96-0.96-2.261-1.517-3.626-1.464c-1.357,0.024-2.646,0.6-3.571,1.594L58.52,84.167l77.045,36.084l6.247-5.812  c0.994-0.925,1.569-2.214,1.593-3.571C143.43,109.512,142.902,108.202,141.942,107.243z M2.093,144.826l-0.754,0.811  c-1.833,1.97-1.777,5.038,0.125,6.94l44.469,44.469c0.975,0.975,2.254,1.465,3.536,1.465c1.221,0,2.444-0.445,3.405-1.339  l20.422-18.998L2.093,144.826z"
     id="path3"
     style="fill:#1889c3;fill-opacity:1" /><g
     id="g5" /><g
     id="g7" /><g
     id="g9" /><g
     id="g11" /><g
     id="g13" /><g
     id="g15" /><g
     id="g17" /><g
     id="g19" /><g
     id="g21" /><g
     id="g23" /><g
     id="g25" /><g
     id="g27" /><g
     id="g29" /><g
     id="g31" /><g
     id="g33" /></svg>