<?xml version="1.0" encoding="UTF-8" standalone="no"?>
<!-- Generator: Adobe Illustrator 18.1.1, SVG Export Plug-In . SVG Version: 6.00 Build 0)  -->

<svg
   xmlns:dc="http://purl.org/dc/elements/1.1/"
   xmlns:cc="http://creativecommons.org/ns#"
   xmlns:rdf="http://www.w3.org/1999/02/22-rdf-syntax-ns#"
   xmlns:svg="http://www.w3.org/2000/svg"
   xmlns="http://www.w3.org/2000/svg"
   xmlns:sodipodi="http://sodipodi.sourceforge.net/DTD/sodipodi-0.dtd"
   xmlns:inkscape="http://www.inkscape.org/namespaces/inkscape"
   version="1.1"
   id="Capa_1"
   x="0px"
   y="0px"
   viewBox="0 0 612.001 612.001"
   style="enable-background:new 0 0 612.001 612.001;"
   xml:space="preserve"
   inkscape:version="0.91 r13725"
   sodipodi:docname="buc2_24.svg"><metadata
     id="metadata45"><rdf:RDF><cc:Work
         rdf:about=""><dc:format>image/svg+xml</dc:format><dc:type
           rdf:resource="http://purl.org/dc/dcmitype/StillImage" /><dc:title></dc:title></cc:Work></rdf:RDF></metadata><defs
     id="defs43" /><sodipodi:namedview
     pagecolor="#ffffff"
     bordercolor="#666666"
     borderopacity="1"
     objecttolerance="10"
     gridtolerance="10"
     guidetolerance="10"
     inkscape:pageopacity="0"
     inkscape:pageshadow="2"
     inkscape:window-width="1280"
     inkscape:window-height="971"
     id="namedview41"
     showgrid="false"
     inkscape:zoom="0.3856203"
     inkscape:cx="306.00049"
     inkscape:cy="306.00049"
     inkscape:window-x="1912"
     inkscape:window-y="-8"
     inkscape:window-maximized="1"
     inkscape:current-layer="Capa_1" /><g
     id="g3"
     style="fill:#1889c3;fill-opacity:1"><g
       id="g5"
       style="fill:#1889c3;fill-opacity:1"><path
         d="M236.266,236.355c-1.896-1.894-4.466-2.961-7.145-2.961c-2.681,0-5.25,1.066-7.145,2.961L28.064,430.272    C9.965,448.366,0.001,472.423,0.001,498.018c0,25.585,9.966,49.644,28.061,67.736l18.179,18.188    c18.092,18.092,42.149,28.057,67.738,28.059c0.004,0,0.004,0,0.006,0c25.587,0,49.646-9.966,67.742-28.065l193.913-193.917    c3.944-3.946,3.944-10.343,0-14.289L236.266,236.355z"
         id="path7"
         style="fill:#1889c3;fill-opacity:1" /><path
         d="M609.038,2.961c-2.178-2.176-5.23-3.255-8.292-2.892L534.06,7.684c-2.269,0.259-4.383,1.277-5.998,2.892L298.955,239.688    c-3.946,3.946-3.946,10.343,0,14.289l59.064,59.068c1.894,1.894,4.464,2.961,7.145,2.961c2.679,0,5.25-1.066,7.145-2.961    L601.42,83.933c1.615-1.615,2.633-3.729,2.894-5.998l7.621-66.682C612.283,8.193,611.216,5.139,609.038,2.961z"
         id="path9"
         style="fill:#1889c3;fill-opacity:1" /></g></g><g
     id="g11" /><g
     id="g13" /><g
     id="g15" /><g
     id="g17" /><g
     id="g19" /><g
     id="g21" /><g
     id="g23" /><g
     id="g25" /><g
     id="g27" /><g
     id="g29" /><g
     id="g31" /><g
     id="g33" /><g
     id="g35" /><g
     id="g37" /><g
     id="g39" /></svg>