<?xml version="1.0" encoding="UTF-8" standalone="no"?>
<!-- Generator: Adobe Illustrator 16.0.0, SVG Export Plug-In . SVG Version: 6.00 Build 0)  -->

<svg
   xmlns:dc="http://purl.org/dc/elements/1.1/"
   xmlns:cc="http://creativecommons.org/ns#"
   xmlns:rdf="http://www.w3.org/1999/02/22-rdf-syntax-ns#"
   xmlns:svg="http://www.w3.org/2000/svg"
   xmlns="http://www.w3.org/2000/svg"
   xmlns:sodipodi="http://sodipodi.sourceforge.net/DTD/sodipodi-0.dtd"
   xmlns:inkscape="http://www.inkscape.org/namespaces/inkscape"
   version="1.1"
   id="Capa_1"
   x="0px"
   y="0px"
   width="430.602px"
   height="430.602px"
   viewBox="0 0 430.602 430.602"
   style="enable-background:new 0 0 430.602 430.602;"
   xml:space="preserve"
   inkscape:version="0.91 r13725"
   sodipodi:docname="ring2_24.svg"><metadata
     id="metadata41"><rdf:RDF><cc:Work
         rdf:about=""><dc:format>image/svg+xml</dc:format><dc:type
           rdf:resource="http://purl.org/dc/dcmitype/StillImage" /><dc:title></dc:title></cc:Work></rdf:RDF></metadata><defs
     id="defs39" /><sodipodi:namedview
     pagecolor="#ffffff"
     bordercolor="#666666"
     borderopacity="1"
     objecttolerance="10"
     gridtolerance="10"
     guidetolerance="10"
     inkscape:pageopacity="0"
     inkscape:pageshadow="2"
     inkscape:window-width="1280"
     inkscape:window-height="971"
     id="namedview37"
     showgrid="false"
     inkscape:zoom="0.54806992"
     inkscape:cx="215.30099"
     inkscape:cy="215.30099"
     inkscape:window-x="1912"
     inkscape:window-y="-8"
     inkscape:window-maximized="1"
     inkscape:current-layer="Capa_1" /><g
     id="g3"><path
       d="M215.301,60c41.482,0,80.481,16.154,109.814,45.486c29.332,29.332,45.485,68.332,45.485,109.814   c0,41.481-16.153,80.481-45.485,109.813c-29.333,29.332-68.332,45.486-109.814,45.486c-41.482,0-80.481-16.154-109.814-45.486   C76.155,295.781,60.001,256.781,60.001,215.3c0-41.482,16.154-80.482,45.486-109.814C134.82,76.155,173.819,60,215.301,60    M215.301,0C96.394,0,0,96.394,0,215.301s96.394,215.301,215.301,215.301s215.301-96.394,215.301-215.301S334.208,0,215.301,0   L215.301,0z"
       id="path5"
       style="fill:#1889c3;fill-opacity:1" /></g><g
     id="g7" /><g
     id="g9" /><g
     id="g11" /><g
     id="g13" /><g
     id="g15" /><g
     id="g17" /><g
     id="g19" /><g
     id="g21" /><g
     id="g23" /><g
     id="g25" /><g
     id="g27" /><g
     id="g29" /><g
     id="g31" /><g
     id="g33" /><g
     id="g35" /></svg>