<?xml version="1.0" encoding="UTF-8" standalone="no"?>
<!-- Created with Inkscape (http://www.inkscape.org/) -->

<svg
   xmlns:dc="http://purl.org/dc/elements/1.1/"
   xmlns:cc="http://creativecommons.org/ns#"
   xmlns:rdf="http://www.w3.org/1999/02/22-rdf-syntax-ns#"
   xmlns:svg="http://www.w3.org/2000/svg"
   xmlns="http://www.w3.org/2000/svg"
   xmlns:sodipodi="http://sodipodi.sourceforge.net/DTD/sodipodi-0.dtd"
   xmlns:inkscape="http://www.inkscape.org/namespaces/inkscape"
   id="svg2"
   version="1.1"
   inkscape:version="0.91 r13725"
   xml:space="preserve"
   width="400"
   height="67"
   viewBox="0 0 400 67.000002"
   sodipodi:docname="importinox_logotipo.svg"><metadata
     id="metadata8"><rdf:RDF><cc:Work
         rdf:about=""><dc:format>image/svg+xml</dc:format><dc:type
           rdf:resource="http://purl.org/dc/dcmitype/StillImage" /><dc:title /></cc:Work></rdf:RDF></metadata><defs
     id="defs6"><clipPath
       clipPathUnits="userSpaceOnUse"
       id="clipPath16"><path
         d="m 0,858.898 612.288,0 L 612.288,0 0,0 0,858.898 Z"
         id="path18"
         inkscape:connector-curvature="0" /></clipPath></defs><sodipodi:namedview
     pagecolor="#ffffff"
     bordercolor="#666666"
     borderopacity="1"
     objecttolerance="10"
     gridtolerance="10"
     guidetolerance="10"
     inkscape:pageopacity="0"
     inkscape:pageshadow="2"
     inkscape:window-width="1280"
     inkscape:window-height="971"
     id="namedview4"
     showgrid="false"
     inkscape:zoom="1.4142136"
     inkscape:cx="229.44779"
     inkscape:cy="-4.6729555"
     inkscape:window-x="1912"
     inkscape:window-y="-8"
     inkscape:window-maximized="1"
     inkscape:current-layer="g10"
     fit-margin-top="0"
     fit-margin-left="0"
     fit-margin-right="0"
     fit-margin-bottom="0" /><g
     id="g10"
     inkscape:groupmode="layer"
     inkscape:label="importinox_logotipo"
     transform="matrix(1.25,0,0,-1.25,-184.81387,587.97538)"><g
       id="g12"
       transform="translate(0,8)"><g
         id="g14"
         clip-path="url(#clipPath16)"><g
           id="g20"
           transform="translate(466.4369,424.1415)"><path
             d="m 0,6.4 -6.926,0 -6.125,7.368 -6.127,-7.368 -6.924,0 9.588,11.585 -9.322,11.277 6.925,0 5.86,-7.103 5.86,7.103 6.923,0 L -9.59,17.985 0,6.4 Z m -30.742,7.235 0,8.39 c 0,1.273 -0.711,1.909 -2.131,1.909 l -13.406,0 c -1.422,0 -2.131,-0.636 -2.131,-1.909 l 0,-8.39 c 0,-1.272 0.709,-1.908 2.131,-1.908 l 13.406,0 c 1.42,0 2.131,0.636 2.131,1.908 m 5.326,0 c 0,-2.071 -0.725,-3.802 -2.174,-5.194 C -29.041,7.08 -30.801,6.4 -32.873,6.4 l -13.406,0 c -2.073,0 -3.832,0.68 -5.284,2.041 -1.449,1.392 -2.173,3.123 -2.173,5.194 l 0,8.39 c 0,2.072 0.724,3.789 2.173,5.15 1.452,1.391 3.211,2.087 5.284,2.087 l 13.406,0 c 2.072,0 3.832,-0.696 5.283,-2.087 1.449,-1.361 2.174,-3.078 2.174,-5.15 l 0,-8.39 z M -55.957,6.4 l -5.328,0 -13.717,15.403 0,-15.403 -5.325,0 0,22.862 5.325,0 13.717,-15.272 0,15.272 5.328,0 0,-22.862 z m -26.59,0 -5.328,0 0,22.862 5.328,0 0,-22.862 z"
             style="fill:#008acd;fill-opacity:1;fill-rule:evenodd;stroke:none"
             id="path22"
             inkscape:connector-curvature="0" /></g><path
           d="m 225.476,430.542 -5.325,0 0,22.862 5.325,0 0,-22.862 z m 31.873,0 -5.326,0 0,13.939 -9.5,-13.541 -9.5,13.541 0,-13.939 -5.326,0 0,22.861 5.592,0 9.234,-13.185 9.277,13.185 5.549,0 0,-22.861 z m 25.48,15.137 c 0,1.598 -0.384,2.397 -1.154,2.397 l -16.779,0 0,-4.75 16.779,0 c 0.77,0 1.154,0.784 1.154,2.353 m 5.329,0 c 0,-2.042 -0.563,-3.788 -1.688,-5.239 -1.213,-1.627 -2.81,-2.441 -4.795,-2.441 l -16.779,0 0,-7.457 -5.326,0 0,22.861 22.105,0 c 1.985,0 3.582,-0.814 4.795,-2.442 1.125,-1.479 1.688,-3.24 1.688,-5.282 m 88.496,2.397 -10.299,0 0,-17.534 -5.328,0 0,17.534 -10.299,0 0,5.327 25.926,0 0,-5.327 z m -63.283,-10.299 0,8.39 c 0,1.273 -0.71,1.909 -2.131,1.909 l -13.407,0 c -1.419,0 -2.13,-0.636 -2.13,-1.909 l 0,-8.39 c 0,-1.273 0.711,-1.909 2.13,-1.909 l 13.407,0 c 1.421,0 2.131,0.636 2.131,1.909 m 5.326,0 c 0,-2.071 -0.725,-3.803 -2.174,-5.194 -1.451,-1.362 -3.211,-2.041 -5.283,-2.041 l -13.407,0 c -2.072,0 -3.832,0.679 -5.283,2.041 -1.449,1.391 -2.174,3.123 -2.174,5.194 l 0,8.39 c 0,2.072 0.725,3.789 2.174,5.149 1.451,1.391 3.211,2.087 5.283,2.087 l 13.407,0 c 2.072,0 3.832,-0.696 5.283,-2.087 1.449,-1.36 2.174,-3.077 2.174,-5.149 l 0,-8.39 z m 25.48,7.902 c 0,1.598 -0.385,2.397 -1.154,2.397 l -16.779,0 0,-4.75 16.779,0 c 0.769,0 1.154,0.784 1.154,2.353 m 5.328,0 c 0,-2.042 -0.561,-3.788 -1.686,-5.239 -1.214,-1.627 -2.812,-2.441 -4.796,-2.441 l -0.379,0 6.861,-7.457 -7.176,0 -6.861,7.457 -9.224,0 0,-7.457 -5.327,0 0,22.861 22.106,0 c 1.984,0 3.582,-0.814 4.796,-2.442 1.125,-1.479 1.686,-3.24 1.686,-5.282"
           style="fill:#688597;fill-opacity:1;fill-rule:evenodd;stroke:none"
           id="path24"
           inkscape:connector-curvature="0" /><g
           id="g26"
           transform="translate(169.1381,462.1444)"><path
             d="m 0,0 c 0.682,-1.094 1.359,-2.153 2.037,-3.18 8.67,-13.132 17.172,-20.913 26.096,-26.925 1.549,-1.044 3.109,-2.034 4.685,-2.99 -1.584,0.648 -3.148,1.394 -4.685,2.225 l 0,-10.886 c 0,-1.089 0.14,-2.069 0.328,-2.941 C 14.779,-34.546 1.215,-21.5 -8.365,-3.18 l 8.299,0 C -0.729,-2.093 -1.334,-1.03 -1.879,0 L 0,0 Z m -18.889,-36.391 c 6.205,-5.962 12.268,-10.154 18.448,-13.573 1.627,-0.9 3.261,-1.747 4.908,-2.558 -2.199,0.682 -4.377,1.546 -6.518,2.558 l -16.838,0 0,11.353 c -0.818,0.724 -1.619,1.458 -2.398,2.2 l 0,2.409 c 0.803,-0.827 1.601,-1.623 2.398,-2.389 m 0,27.141 c 18.477,-25.379 34.375,-35.877 51.202,-43.446 -2.629,0.716 -5.243,1.639 -7.817,2.732 l -17.654,0 c -8.953,6.564 -18.145,14.546 -25.731,24.993 l 0,15.721 z m 47.022,-14.721 c -5.955,5.939 -11.676,12.759 -16.438,20.791 l 16.438,0 0,-20.791 z"
             style="fill:#008acd;fill-opacity:1;fill-rule:evenodd;stroke:none"
             id="path28"
             inkscape:connector-curvature="0" /></g><g
           id="g30"
           transform="translate(297.5346,398.4623)"><path
             d="m 0,16 -1.318,0 0,1.02 c -0.655,-0.754 -1.516,-1.131 -2.578,-1.131 -0.991,0 -1.776,0.284 -2.358,0.853 -0.617,0.606 -0.928,1.46 -0.928,2.561 l 0,5.826 1.336,0 0,-5.622 c 0,-1.621 0.743,-2.431 2.227,-2.431 0.705,0 1.262,0.21 1.67,0.631 0.408,0.42 0.613,1.02 0.613,1.8 l 0,5.622 1.336,0 L 0,16 Z m 15.475,0 -1.336,0 0,5.622 c 0,1.62 -0.748,2.431 -2.244,2.431 -0.682,0 -1.233,-0.204 -1.653,-0.613 -0.42,-0.408 -0.631,-0.964 -0.631,-1.67 l 0,-5.77 -1.336,0 0,5.622 c 0,1.62 -0.748,2.431 -2.246,2.431 -0.704,0 -1.261,-0.211 -1.67,-0.631 -0.408,-0.421 -0.611,-1.021 -0.611,-1.8 l 0,-5.622 -1.336,0 0,9.129 1.336,0 0,-1.002 c 0.656,0.742 1.516,1.113 2.578,1.113 1.299,0 2.235,-0.507 2.803,-1.521 0.717,1.014 1.719,1.521 3.006,1.521 0.99,0 1.775,-0.284 2.357,-0.853 0.655,-0.631 0.983,-1.478 0.983,-2.542 l 0,-5.845 z m 12.56,1.243 c -0.471,-0.507 -0.928,-0.86 -1.373,-1.058 -0.445,-0.197 -0.99,-0.296 -1.633,-0.296 -1.201,0 -2.158,0.389 -2.877,1.168 -0.779,0.829 -1.168,1.998 -1.168,3.507 0,1.51 0.389,2.678 1.168,3.507 0.719,0.78 1.676,1.169 2.877,1.169 0.643,0 1.188,-0.099 1.633,-0.297 0.445,-0.197 0.902,-0.55 1.373,-1.057 l -0.91,-0.854 c -0.617,0.68 -1.316,1.021 -2.096,1.021 -0.916,0 -1.62,-0.346 -2.115,-1.039 -0.396,-0.557 -0.594,-1.374 -0.594,-2.45 0,-1.076 0.198,-1.892 0.594,-2.449 0.495,-0.693 1.199,-1.039 2.115,-1.039 0.766,0 1.465,0.346 2.096,1.039 l 0.91,-0.872 z m 8.59,3.321 c 0,-1.669 -0.371,-2.882 -1.113,-3.637 -0.68,-0.692 -1.553,-1.038 -2.615,-1.038 -1.065,0 -1.936,0.346 -2.618,1.038 -0.742,0.755 -1.113,1.968 -1.113,3.637 0,1.67 0.371,2.882 1.113,3.637 0.682,0.693 1.553,1.039 2.618,1.039 1.062,0 1.935,-0.346 2.615,-1.039 0.742,-0.755 1.113,-1.967 1.113,-3.637 m -1.336,0 c 0,1.398 -0.24,2.338 -0.723,2.821 -0.445,0.445 -1.002,0.668 -1.669,0.668 -0.656,0 -1.208,-0.223 -1.653,-0.668 -0.494,-0.495 -0.742,-1.435 -0.742,-2.821 0,-1.385 0.248,-2.325 0.742,-2.82 0.445,-0.446 0.997,-0.668 1.653,-0.668 0.667,0 1.23,0.229 1.687,0.686 0.471,0.47 0.705,1.404 0.705,2.802 M 51.617,16 l -1.336,0 0,5.622 c 0,1.62 -0.747,2.431 -2.244,2.431 -0.68,0 -1.23,-0.204 -1.652,-0.613 -0.42,-0.408 -0.631,-0.964 -0.631,-1.67 l 0,-5.77 -1.336,0 0,5.622 c 0,1.62 -0.748,2.431 -2.244,2.431 -0.705,0 -1.262,-0.211 -1.67,-0.631 -0.408,-0.421 -0.613,-1.021 -0.613,-1.8 l 0,-5.622 -1.336,0 0,9.129 1.336,0 0,-1.002 c 0.656,0.742 1.515,1.113 2.58,1.113 1.299,0 2.232,-0.507 2.801,-1.521 0.719,1.014 1.72,1.521 3.007,1.521 0.989,0 1.774,-0.284 2.356,-0.853 0.656,-0.631 0.982,-1.478 0.982,-2.542 l 0,-5.845 z m 9.576,4.564 c 0,-1.843 -0.371,-3.135 -1.113,-3.878 -0.533,-0.532 -1.275,-0.797 -2.226,-0.797 -1.102,0 -1.961,0.395 -2.581,1.187 l 0,-5.158 -1.335,0 0,13.211 1.335,0 0,-1.076 c 0.606,0.791 1.468,1.187 2.581,1.187 0.951,0 1.693,-0.266 2.226,-0.798 0.742,-0.742 1.113,-2.035 1.113,-3.878 m -1.336,0 c 0,1.076 -0.13,1.88 -0.39,2.413 -0.36,0.717 -0.99,1.076 -1.892,1.076 -0.903,0 -1.534,-0.359 -1.893,-1.076 -0.272,-0.533 -0.409,-1.337 -0.409,-2.413 0,-1.076 0.137,-1.88 0.409,-2.412 0.359,-0.717 0.99,-1.076 1.893,-1.076 0.902,0 1.532,0.359 1.892,1.076 0.26,0.532 0.39,1.336 0.39,2.412 m 9.352,3.823 -0.984,-1.002 c -0.446,0.445 -0.971,0.668 -1.577,0.668 -0.656,0 -1.187,-0.235 -1.595,-0.705 -0.397,-0.458 -0.594,-1.039 -0.594,-1.745 l 0,-5.603 -1.336,0 0,9.129 1.336,0 0,-1.113 c 0.532,0.816 1.385,1.224 2.561,1.224 0.89,0 1.619,-0.284 2.189,-0.853 m 7.773,-3.823 c 0,-1.669 -0.371,-2.882 -1.113,-3.637 -0.68,-0.692 -1.553,-1.038 -2.615,-1.038 -1.065,0 -1.938,0.346 -2.617,1.038 -0.742,0.755 -1.114,1.968 -1.114,3.637 0,1.67 0.372,2.882 1.114,3.637 0.679,0.693 1.552,1.039 2.617,1.039 1.062,0 1.935,-0.346 2.615,-1.039 0.742,-0.755 1.113,-1.967 1.113,-3.637 m -1.335,0 c 0,1.398 -0.241,2.338 -0.723,2.821 -0.445,0.445 -1.002,0.668 -1.67,0.668 -0.656,0 -1.207,-0.223 -1.652,-0.668 -0.495,-0.495 -0.743,-1.435 -0.743,-2.821 0,-1.385 0.248,-2.325 0.743,-2.82 0.445,-0.446 0.996,-0.668 1.652,-0.668 0.668,0 1.23,0.229 1.687,0.686 0.471,0.47 0.706,1.404 0.706,2.802 M 91.975,16 l -1.336,0 0,5.622 c 0,1.62 -0.748,2.431 -2.244,2.431 -0.682,0 -1.231,-0.204 -1.653,-0.613 -0.42,-0.408 -0.631,-0.964 -0.631,-1.67 l 0,-5.77 -1.336,0 0,5.622 c 0,1.62 -0.748,2.431 -2.244,2.431 -0.705,0 -1.261,-0.211 -1.67,-0.631 -0.408,-0.421 -0.613,-1.021 -0.613,-1.8 l 0,-5.622 -1.336,0 0,9.129 1.336,0 0,-1.002 c 0.656,0.742 1.516,1.113 2.58,1.113 1.299,0 2.233,-0.507 2.801,-1.521 0.719,1.014 1.721,1.521 3.006,1.521 0.99,0 1.775,-0.284 2.357,-0.853 0.655,-0.631 0.983,-1.478 0.983,-2.542 l 0,-5.845 z m 3.748,11.727 -1.502,0 0,1.503 1.502,0 0,-1.503 z M 95.631,16 l -1.336,0 0,9.129 1.336,0 0,-9.129 z m 9.017,2.672 c 0,-0.866 -0.339,-1.547 -1.021,-2.041 -0.668,-0.495 -1.564,-0.742 -2.689,-0.742 -1.584,0 -2.834,0.439 -3.749,1.317 l 0.891,0.89 c 0.668,-0.704 1.613,-1.057 2.838,-1.057 1.621,0 2.432,0.538 2.432,1.614 0,0.804 -0.508,1.249 -1.522,1.336 l -1.503,0.13 c -1.819,0.161 -2.727,0.977 -2.727,2.449 0,0.817 0.308,1.466 0.927,1.949 0.631,0.482 1.442,0.723 2.43,0.723 1.387,0 2.481,-0.327 3.286,-0.983 l -0.874,-0.872 c -0.631,0.482 -1.441,0.723 -2.429,0.723 -1.362,0 -2.041,-0.501 -2.041,-1.503 0,-0.792 0.531,-1.237 1.595,-1.335 l 1.465,-0.13 c 1.795,-0.162 2.691,-0.984 2.691,-2.468 m 8.276,0 c 0,-0.866 -0.34,-1.547 -1.022,-2.041 -0.668,-0.495 -1.564,-0.742 -2.689,-0.742 -1.584,0 -2.834,0.439 -3.748,1.317 l 0.89,0.89 c 0.668,-0.704 1.614,-1.057 2.838,-1.057 1.621,0 2.432,0.538 2.432,1.614 0,0.804 -0.508,1.249 -1.521,1.336 l -1.504,0.13 c -1.819,0.161 -2.727,0.977 -2.727,2.449 0,0.817 0.309,1.466 0.928,1.949 0.631,0.482 1.441,0.723 2.429,0.723 1.387,0 2.481,-0.327 3.286,-0.983 l -0.873,-0.872 c -0.631,0.482 -1.442,0.723 -2.43,0.723 -1.361,0 -2.041,-0.501 -2.041,-1.503 0,-0.792 0.531,-1.237 1.596,-1.335 l 1.464,-0.13 c 1.795,-0.162 2.692,-0.984 2.692,-2.468 m 8.664,1.892 c 0,-1.669 -0.371,-2.882 -1.113,-3.637 -0.68,-0.692 -1.553,-1.038 -2.616,-1.038 -1.064,0 -1.935,0.346 -2.617,1.038 -0.742,0.755 -1.113,1.968 -1.113,3.637 0,1.67 0.371,2.882 1.113,3.637 0.682,0.693 1.553,1.039 2.617,1.039 1.063,0 1.936,-0.346 2.616,-1.039 0.742,-0.755 1.113,-1.967 1.113,-3.637 m -1.336,0 c 0,1.398 -0.24,2.338 -0.723,2.821 -0.445,0.445 -1.002,0.668 -1.67,0.668 -0.656,0 -1.207,-0.223 -1.652,-0.668 -0.494,-0.495 -0.742,-1.435 -0.742,-2.821 0,-1.385 0.248,-2.325 0.742,-2.82 0.445,-0.446 0.996,-0.668 1.652,-0.668 0.668,0 1.231,0.229 1.688,0.686 0.471,0.47 0.705,1.404 0.705,2.802 m 13.545,-1.892 c 0,-0.866 -0.342,-1.547 -1.022,-2.041 -0.668,-0.495 -1.564,-0.742 -2.689,-0.742 -1.584,0 -2.834,0.439 -3.748,1.317 l 0.889,0.89 c 0.67,-0.704 1.615,-1.057 2.839,-1.057 1.621,0 2.43,0.538 2.432,1.614 0,0.804 -0.507,1.249 -1.521,1.336 l -1.504,0.13 c -1.819,0.161 -2.729,0.977 -2.729,2.449 0,0.817 0.311,1.466 0.928,1.949 0.631,0.482 1.441,0.723 2.432,0.723 1.384,0 2.48,-0.327 3.285,-0.983 l -0.873,-0.872 c -0.631,0.482 -1.441,0.723 -2.43,0.723 -1.361,0 -2.041,-0.501 -2.041,-1.503 0,-0.792 0.531,-1.237 1.596,-1.335 l 1.464,-0.13 c 1.793,-0.162 2.692,-0.984 2.692,-2.468 m 8.664,1.892 c 0,-1.669 -0.371,-2.882 -1.113,-3.637 -0.68,-0.692 -1.553,-1.038 -2.616,-1.038 -1.064,0 -1.937,0.346 -2.616,1.038 -0.743,0.755 -1.114,1.968 -1.114,3.637 0,1.67 0.371,2.882 1.114,3.637 0.679,0.693 1.552,1.039 2.616,1.039 1.063,0 1.936,-0.346 2.616,-1.039 0.742,-0.755 1.113,-1.967 1.113,-3.637 m -1.336,0 c 0,1.398 -0.24,2.338 -0.723,2.821 -0.445,0.445 -1.002,0.668 -1.67,0.668 -0.656,0 -1.207,-0.223 -1.652,-0.668 -0.494,-0.495 -0.742,-1.435 -0.742,-2.821 0,-1.385 0.248,-2.325 0.742,-2.82 0.445,-0.446 0.996,-0.668 1.652,-0.668 0.668,0 1.231,0.229 1.688,0.686 0.471,0.47 0.705,1.404 0.705,2.802 m -0.074,9.297 -2.004,-2.84 -1.225,0 1.633,2.84 1.596,0 z M 147.639,16 l -0.965,0 c -0.768,0 -1.349,0.222 -1.744,0.667 -0.385,0.446 -0.576,1.034 -0.576,1.764 l 0,10.78 1.335,0 0,-10.725 c 0,-0.89 0.409,-1.336 1.225,-1.336 l 0.725,0 0,-1.15 z m 2.763,11.727 -1.502,0 0,1.503 1.502,0 0,-1.503 z M 150.311,16 l -1.336,0 0,9.129 1.336,0 0,-9.129 z m 9.203,0 -1.319,0 0,1.094 c -0.619,-0.804 -1.484,-1.205 -2.597,-1.205 -0.953,0 -1.696,0.265 -2.227,0.797 -0.742,0.743 -1.113,2.035 -1.113,3.878 0,1.843 0.371,3.136 1.113,3.878 0.531,0.532 1.274,0.798 2.227,0.798 1.113,0 1.972,-0.389 2.58,-1.169 l 0,5.14 1.336,0 0,-13.211 z m -1.336,4.564 c 0,1.076 -0.131,1.88 -0.391,2.413 -0.359,0.717 -0.99,1.076 -1.892,1.076 -0.903,0 -1.534,-0.359 -1.893,-1.076 -0.272,-0.533 -0.408,-1.337 -0.408,-2.413 0,-1.076 0.136,-1.88 0.408,-2.412 0.359,-0.717 0.99,-1.076 1.893,-1.076 0.902,0 1.533,0.359 1.892,1.076 0.26,0.532 0.391,1.336 0.391,2.412 m 10.724,0 c 0,-1.669 -0.37,-2.882 -1.113,-3.637 -0.682,-0.692 -1.553,-1.038 -2.617,-1.038 -1.065,0 -1.936,0.346 -2.615,1.038 -0.743,0.755 -1.114,1.968 -1.114,3.637 0,1.67 0.371,2.882 1.114,3.637 0.679,0.693 1.55,1.039 2.615,1.039 1.064,0 1.935,-0.346 2.617,-1.039 0.743,-0.755 1.113,-1.967 1.113,-3.637 m -1.336,0 c 0,1.398 -0.241,2.338 -0.724,2.821 -0.445,0.445 -1.002,0.668 -1.67,0.668 -0.656,0 -1.205,-0.223 -1.65,-0.668 -0.497,-0.495 -0.743,-1.435 -0.743,-2.821 0,-1.385 0.246,-2.325 0.743,-2.82 0.445,-0.446 0.994,-0.668 1.65,-0.668 0.668,0 1.23,0.229 1.689,0.686 0.469,0.47 0.705,1.404 0.705,2.802"
             style="fill:#008acd;fill-opacity:1;fill-rule:evenodd;stroke:none"
             id="path32"
             inkscape:connector-curvature="0" /></g></g></g></g></svg>