<?xml version="1.0" encoding="UTF-8" standalone="no"?>
<!-- Created with Inkscape (http://www.inkscape.org/) -->

<svg
   xmlns:dc="http://purl.org/dc/elements/1.1/"
   xmlns:cc="http://creativecommons.org/ns#"
   xmlns:rdf="http://www.w3.org/1999/02/22-rdf-syntax-ns#"
   xmlns:svg="http://www.w3.org/2000/svg"
   xmlns="http://www.w3.org/2000/svg"
   xmlns:sodipodi="http://sodipodi.sourceforge.net/DTD/sodipodi-0.dtd"
   xmlns:inkscape="http://www.inkscape.org/namespaces/inkscape"
   id="svg2"
   version="1.1"
   inkscape:version="0.91 r13725"
   xml:space="preserve"
   width="517.32251"
   height="239.66499"
   viewBox="0 0 517.32253 239.66499"
   sodipodi:docname="iso9001_color.svg"><metadata
     id="metadata8"><rdf:RDF><cc:Work
         rdf:about=""><dc:format>image/svg+xml</dc:format><dc:type
           rdf:resource="http://purl.org/dc/dcmitype/StillImage" /><dc:title></dc:title></cc:Work></rdf:RDF></metadata><defs
     id="defs6"><clipPath
       clipPathUnits="userSpaceOnUse"
       id="clipPath20"><path
         d="m 0,612.288 858.898,0 L 858.898,0 0,0 0,612.288 Z"
         id="path22"
         inkscape:connector-curvature="0" /></clipPath></defs><sodipodi:namedview
     pagecolor="#ffffff"
     bordercolor="#666666"
     borderopacity="1"
     objecttolerance="10"
     gridtolerance="10"
     guidetolerance="10"
     inkscape:pageopacity="0"
     inkscape:pageshadow="2"
     inkscape:window-width="1280"
     inkscape:window-height="971"
     id="namedview4"
     showgrid="false"
     borderlayer="false"
     fit-margin-top="0"
     fit-margin-left="0"
     fit-margin-right="0"
     fit-margin-bottom="0"
     inkscape:zoom="0.61670326"
     inkscape:cx="68.79486"
     inkscape:cy="42.310162"
     inkscape:window-x="1912"
     inkscape:window-y="-8"
     inkscape:window-maximized="1"
     inkscape:current-layer="g10" /><g
     id="g10"
     inkscape:groupmode="layer"
     inkscape:label="ISO 9001_cores"
     transform="matrix(1.25,0,0,-1.25,-278.2575,506.4895)"><path
       d="m 636.464,238.46 -413.858,0 0,141.732 413.858,0 0,-141.732 z"
       style="fill:#a11100;fill-opacity:1;fill-rule:nonzero;stroke:none"
       id="path12"
       inkscape:connector-curvature="0" /><path
       d="m 240.875,337.703 -2.157,0 0,16.517 2.157,0 0,-16.517 z"
       style="fill:#ffffff;fill-opacity:1;fill-rule:nonzero;stroke:none"
       id="path14"
       inkscape:connector-curvature="0" /><g
       id="g16"><g
         id="g18"
         clip-path="url(#clipPath20)"><g
           id="g24"
           transform="translate(244.3286,340.301)"><path
             d="m 0,0 c 0.956,-0.613 2.328,-1.078 3.798,-1.078 2.181,0 3.456,1.151 3.456,2.818 0,1.519 -0.882,2.426 -3.112,3.259 -2.696,0.98 -4.363,2.402 -4.363,4.705 0,2.573 2.133,4.484 5.343,4.484 1.666,0 2.916,-0.392 3.627,-0.808 L 8.161,11.64 c -0.515,0.318 -1.618,0.784 -3.113,0.784 -2.254,0 -3.112,-1.347 -3.112,-2.475 0,-1.544 1.005,-2.303 3.284,-3.185 2.793,-1.079 4.19,-2.427 4.19,-4.852 0,-2.549 -1.862,-4.779 -5.759,-4.779 -1.592,0 -3.332,0.49 -4.214,1.078 L 0,0 Z"
             style="fill:#ffffff;fill-opacity:1;fill-rule:nonzero;stroke:none"
             id="path26"
             inkscape:connector-curvature="0" /></g><g
           id="g28"
           transform="translate(257.9512,345.8884)"><path
             d="m 0,0 c 0,-3.554 1.911,-6.715 5.293,-6.715 3.382,0 5.293,3.112 5.293,6.862 0,3.308 -1.715,6.739 -5.269,6.739 C 1.764,6.886 0,3.602 0,0 m 12.841,0.245 c 0,-5.661 -3.456,-8.7 -7.671,-8.7 -4.386,0 -7.425,3.407 -7.425,8.406 0,5.244 3.235,8.675 7.646,8.675 4.533,0 7.45,-3.456 7.45,-8.381"
             style="fill:#ffffff;fill-opacity:1;fill-rule:nonzero;stroke:none"
             id="path30"
             inkscape:connector-curvature="0" /></g><g
           id="g32"
           transform="translate(280.0249,348.3635)"><path
             d="m 0,0 c 0,-1.985 1.201,-3.382 3.063,-3.382 1.446,0 2.573,0.711 3.137,1.666 0.123,0.221 0.196,0.442 0.196,0.809 0,2.72 -1.004,4.803 -3.284,4.803 C 1.299,3.896 0,2.279 0,0 m -0.784,-9.141 c 0.466,-0.049 1.005,0 1.74,0.074 1.25,0.171 2.426,0.661 3.333,1.544 1.053,0.955 1.813,2.352 2.107,4.214 l -0.073,0 C 5.44,-4.387 4.166,-5 2.549,-5 c -2.843,0 -4.681,2.157 -4.681,4.877 0,3.015 2.181,5.661 5.441,5.661 3.259,0 5.268,-2.622 5.268,-6.739 0,-3.48 -1.176,-5.93 -2.744,-7.45 -1.226,-1.201 -2.916,-1.935 -4.632,-2.132 -0.784,-0.122 -1.471,-0.147 -1.985,-0.122 l 0,1.764 z"
             style="fill:#ffffff;fill-opacity:1;fill-rule:nonzero;stroke:none"
             id="path34"
             inkscape:connector-curvature="0" /></g><g
           id="g36"
           transform="translate(292.5195,345.594)"><path
             d="m 0,0 c 0,-4.141 1.274,-6.494 3.235,-6.494 2.181,0 3.235,2.573 3.235,6.641 0,3.921 -0.981,6.494 -3.235,6.494 C 1.373,6.641 0,4.338 0,0 m 8.651,0.245 c 0,-5.415 -2.034,-8.405 -5.539,-8.405 -3.112,0 -5.244,2.916 -5.293,8.185 0,5.367 2.328,8.283 5.563,8.283 3.333,0 5.269,-2.99 5.269,-8.063"
             style="fill:#ffffff;fill-opacity:1;fill-rule:nonzero;stroke:none"
             id="path38"
             inkscape:connector-curvature="0" /></g><g
           id="g40"
           transform="translate(305.0879,345.594)"><path
             d="m 0,0 c 0,-4.141 1.274,-6.494 3.235,-6.494 2.181,0 3.234,2.573 3.234,6.641 0,3.921 -0.98,6.494 -3.234,6.494 C 1.372,6.641 0,4.338 0,0 m 8.65,0.245 c 0,-5.415 -2.034,-8.405 -5.538,-8.405 -3.112,0 -5.244,2.916 -5.293,8.185 0,5.367 2.328,8.283 5.563,8.283 3.332,0 5.268,-2.99 5.268,-8.063"
             style="fill:#ffffff;fill-opacity:1;fill-rule:nonzero;stroke:none"
             id="path42"
             inkscape:connector-curvature="0" /></g><g
           id="g44"
           transform="translate(320.376,351.6228)"><path
             d="m 0,0 -0.049,0 -2.769,-1.495 -0.417,1.642 3.48,1.862 1.838,0 0,-15.928 -2.083,0 L 0,0 Z"
             style="fill:#ffffff;fill-opacity:1;fill-rule:nonzero;stroke:none"
             id="path46"
             inkscape:connector-curvature="0" /></g><g
           id="g48"
           transform="translate(241.2803,291.4851)"><path
             d="m 0,0 c 0.486,-0.081 1.134,-0.108 1.97,-0.108 2.43,0 4.67,0.89 4.67,3.536 0,2.456 -2.132,3.509 -4.697,3.509 L 0,6.937 0,0 Z m 0,8.691 2.132,0 c 2.457,0 3.914,1.323 3.914,3.078 0,2.105 -1.592,2.969 -3.968,2.969 -1.079,0 -1.7,-0.081 -2.078,-0.162 L 0,8.691 Z m -2.349,7.451 c 1.026,0.242 2.673,0.404 4.292,0.404 2.349,0 3.86,-0.404 4.967,-1.322 0.945,-0.702 1.539,-1.782 1.539,-3.212 0,-1.782 -1.188,-3.321 -3.077,-3.995 l 0,-0.081 C 7.099,7.531 9.124,6.101 9.124,3.4 c 0,-1.565 -0.622,-2.779 -1.566,-3.643 -1.242,-1.161 -3.293,-1.7 -6.263,-1.7 -1.619,0 -2.86,0.107 -3.644,0.215 l 0,17.87 z"
             style="fill:#ffffff;fill-opacity:1;fill-rule:nonzero;stroke:none"
             id="path50"
             inkscape:connector-curvature="0" /></g><g
           id="g52"
           transform="translate(255.9141,307.8967)"><path
             d="m 0,0 0,-10.797 c 0,-4.049 1.809,-5.777 4.238,-5.777 2.672,0 4.427,1.782 4.427,5.777 l 0,10.797 2.375,0 0,-10.635 c 0,-5.588 -2.942,-7.856 -6.883,-7.856 -3.725,0 -6.532,2.106 -6.532,7.775 L -2.375,0 0,0 Z"
             style="fill:#ffffff;fill-opacity:1;fill-rule:nonzero;stroke:none"
             id="path54"
             inkscape:connector-curvature="0" /></g><g
           id="g56"
           transform="translate(273.3828,299.3669)"><path
             d="m 0,0 2.402,0 c 2.511,0 4.103,1.377 4.103,3.455 0,2.348 -1.7,3.374 -4.184,3.374 C 1.187,6.829 0.405,6.748 0,6.64 L 0,0 Z m -2.349,8.287 c 1.188,0.215 2.916,0.378 4.508,0.378 2.51,0 4.157,-0.486 5.264,-1.485 0.89,-0.81 1.431,-2.051 1.431,-3.482 0,-2.376 -1.512,-3.969 -3.402,-4.616 l 0,-0.081 C 6.829,-1.484 7.666,-2.78 8.098,-4.67 8.691,-7.207 9.124,-8.962 9.501,-9.663 l -2.429,0 c -0.297,0.539 -0.702,2.078 -1.188,4.346 -0.54,2.509 -1.538,3.455 -3.671,3.536 l -2.213,0 0,-7.882 -2.349,0 0,17.95 z"
             style="fill:#ffffff;fill-opacity:1;fill-rule:nonzero;stroke:none"
             id="path58"
             inkscape:connector-curvature="0" /></g><g
           id="g60"
           transform="translate(294.9536,298.2331)"><path
             d="m 0,0 -7.045,0 0,-6.56 7.882,0 0,-1.969 -10.257,0 0,18.193 9.852,0 0,-1.971 -7.477,0 0,-5.75 L 0,1.943 0,0 Z"
             style="fill:#ffffff;fill-opacity:1;fill-rule:nonzero;stroke:none"
             id="path62"
             inkscape:connector-curvature="0" /></g><g
           id="g64"
           transform="translate(307.7783,297.2614)"><path
             d="m 0,0 -1.809,5.236 c -0.404,1.188 -0.674,2.268 -0.944,3.321 l -0.054,0 C -3.077,7.504 -3.347,6.37 -3.725,5.264 L -5.506,0 0,0 Z m -5.992,-1.836 -1.89,-5.722 -2.429,0 6.208,18.193 2.808,0 6.208,-18.193 -2.511,0 -1.943,5.722 -6.451,0 z"
             style="fill:#ffffff;fill-opacity:1;fill-rule:nonzero;stroke:none"
             id="path66"
             inkscape:connector-curvature="0" /></g><g
           id="g68"
           transform="translate(316.96,307.8967)"><path
             d="m 0,0 0,-10.797 c 0,-4.049 1.809,-5.777 4.238,-5.777 2.672,0 4.427,1.782 4.427,5.777 l 0,10.797 2.376,0 0,-10.635 c 0,-5.588 -2.943,-7.856 -6.884,-7.856 -3.725,0 -6.532,2.106 -6.532,7.775 L -2.375,0 0,0 Z"
             style="fill:#ffffff;fill-opacity:1;fill-rule:nonzero;stroke:none"
             id="path70"
             inkscape:connector-curvature="0" /></g><g
           id="g72"
           transform="translate(340.8271,289.7038)"><path
             d="m 0,0 -5.965,18.193 2.564,0 2.834,-8.962 C 0.189,6.774 0.864,4.562 1.377,2.429 l 0.054,0 c 0.513,2.105 1.241,4.4 2.078,6.775 l 3.077,8.989 2.511,0 L 2.591,0 0,0 Z"
             style="fill:#ffffff;fill-opacity:1;fill-rule:nonzero;stroke:none"
             id="path74"
             inkscape:connector-curvature="0" /></g><g
           id="g76"
           transform="translate(361.292,298.2331)"><path
             d="m 0,0 -7.045,0 0,-6.56 7.881,0 0,-1.969 -10.257,0 0,18.193 9.853,0 0,-1.971 -7.477,0 0,-5.75 L 0,1.943 0,0 Z"
             style="fill:#ffffff;fill-opacity:1;fill-rule:nonzero;stroke:none"
             id="path78"
             inkscape:connector-curvature="0" /></g><g
           id="g80"
           transform="translate(367.5303,299.3669)"><path
             d="m 0,0 2.402,0 c 2.511,0 4.103,1.377 4.103,3.455 0,2.348 -1.7,3.374 -4.184,3.374 C 1.188,6.829 0.405,6.748 0,6.64 L 0,0 Z M -2.348,8.287 C -1.161,8.502 0.567,8.665 2.16,8.665 4.67,8.665 6.316,8.179 7.423,7.18 8.314,6.37 8.854,5.129 8.854,3.698 8.854,1.322 7.342,-0.271 5.453,-0.918 l 0,-0.081 C 6.829,-1.484 7.666,-2.78 8.098,-4.67 8.692,-7.207 9.124,-8.962 9.501,-9.663 l -2.429,0 c -0.297,0.539 -0.701,2.078 -1.187,4.346 -0.54,2.509 -1.539,3.455 -3.672,3.536 l -2.213,0 0,-7.882 -2.348,0 0,17.95 z"
             style="fill:#ffffff;fill-opacity:1;fill-rule:nonzero;stroke:none"
             id="path82"
             inkscape:connector-curvature="0" /></g><path
           d="m 382.056,289.704 -2.375,0 0,18.193 2.375,0 0,-18.193 z"
           style="fill:#ffffff;fill-opacity:1;fill-rule:nonzero;stroke:none"
           id="path84"
           inkscape:connector-curvature="0" /><g
           id="g86"
           transform="translate(389.6157,305.8991)"><path
             d="m 0,0 -5.533,0 0,1.998 13.469,0 0,-1.998 -5.561,0 0,-16.195 -2.375,0 L 0,0 Z"
             style="fill:#ffffff;fill-opacity:1;fill-rule:nonzero;stroke:none"
             id="path88"
             inkscape:connector-curvature="0" /></g><g
           id="g90"
           transform="translate(406.4893,297.2614)"><path
             d="m 0,0 -1.809,5.236 c -0.404,1.188 -0.674,2.268 -0.944,3.321 l -0.054,0 C -3.077,7.504 -3.347,6.37 -3.725,5.264 L -5.506,0 0,0 Z m -5.992,-1.836 -1.89,-5.722 -2.429,0 6.208,18.193 2.808,0 6.208,-18.193 -2.511,0 -1.943,5.722 -6.451,0 z"
             style="fill:#ffffff;fill-opacity:1;fill-rule:nonzero;stroke:none"
             id="path92"
             inkscape:connector-curvature="0" /></g><g
           id="g94"
           transform="translate(413.7817,292.5642)"><path
             d="m 0,0 c 1.053,-0.675 2.564,-1.187 4.184,-1.187 2.402,0 3.806,1.268 3.806,3.104 0,1.674 -0.972,2.672 -3.428,3.59 -2.969,1.08 -4.805,2.645 -4.805,5.182 0,2.835 2.348,4.94 5.885,4.94 1.835,0 3.212,-0.432 3.995,-0.891 L 8.989,12.822 c -0.567,0.351 -1.782,0.864 -3.428,0.864 -2.484,0 -3.429,-1.485 -3.429,-2.726 0,-1.701 1.107,-2.538 3.618,-3.51 3.077,-1.187 4.615,-2.672 4.615,-5.345 0,-2.806 -2.051,-5.263 -6.343,-5.263 -1.754,0 -3.671,0.54 -4.643,1.188 L 0,0 Z"
             style="fill:#ffffff;fill-opacity:1;fill-rule:nonzero;stroke:none"
             id="path96"
             inkscape:connector-curvature="0" /></g><g
           id="g98"
           transform="translate(249.9854,263.2077)"><path
             d="m 0,0 c -0.744,-0.385 -2.304,-0.769 -4.272,-0.769 -4.561,0 -7.969,2.881 -7.969,8.209 0,5.088 3.432,8.498 8.449,8.498 1.992,0 3.288,-0.433 3.84,-0.721 L -0.48,13.513 c -0.768,0.383 -1.896,0.672 -3.24,0.672 -3.793,0 -6.313,-2.424 -6.313,-6.672 0,-3.985 2.281,-6.505 6.193,-6.505 1.296,0 2.592,0.263 3.432,0.672 L 0,0 Z"
             style="fill:#ffffff;fill-opacity:1;fill-rule:nonzero;stroke:none"
             id="path100"
             inkscape:connector-curvature="0" /></g><g
           id="g102"
           transform="translate(259.6572,269.6404)"><path
             d="M 0,0 C 0.024,1.319 -0.552,3.408 -2.928,3.408 -5.088,3.408 -6,1.464 -6.168,0 L 0,0 Z m -6.192,-1.513 c 0.047,-2.856 1.848,-4.032 3.984,-4.032 1.512,0 2.448,0.264 3.216,0.6 l 0.384,-1.512 c -0.744,-0.336 -2.04,-0.744 -3.888,-0.744 -3.577,0 -5.713,2.376 -5.713,5.881 0,3.504 2.064,6.24 5.449,6.24 3.816,0 4.8,-3.313 4.8,-5.448 0,-0.433 -0.024,-0.744 -0.072,-0.985 l -8.16,0 z"
             style="fill:#ffffff;fill-opacity:1;fill-rule:nonzero;stroke:none"
             id="path104"
             inkscape:connector-curvature="0" /></g><g
           id="g106"
           transform="translate(264.3125,270.696)"><path
             d="m 0,0 c 0,1.368 -0.024,2.544 -0.096,3.624 l 1.848,0 0.096,-2.304 0.072,0 c 0.528,1.56 1.824,2.544 3.24,2.544 0.216,0 0.384,-0.023 0.576,-0.048 l 0,-1.992 C 5.521,1.872 5.304,1.872 5.016,1.872 3.528,1.872 2.472,0.769 2.184,-0.816 2.136,-1.104 2.112,-1.464 2.112,-1.8 l 0,-6.192 L 0,-7.992 0,0 Z"
             style="fill:#ffffff;fill-opacity:1;fill-rule:nonzero;stroke:none"
             id="path108"
             inkscape:connector-curvature="0" /></g><g
           id="g110"
           transform="translate(275.2803,277.1042)"><path
             d="m 0,0 0,-2.784 3.024,0 0,-1.608 -3.024,0 0,-6.264 c 0,-1.441 0.408,-2.257 1.584,-2.257 0.576,0 0.912,0.048 1.224,0.144 l 0.096,-1.608 c -0.408,-0.144 -1.056,-0.288 -1.872,-0.288 -0.984,0 -1.776,0.336 -2.28,0.889 -0.576,0.647 -0.816,1.679 -0.816,3.047 l 0,6.337 -1.8,0 0,1.608 1.8,0 0,2.16 L 0,0 Z"
             style="fill:#ffffff;fill-opacity:1;fill-rule:nonzero;stroke:none"
             id="path112"
             inkscape:connector-curvature="0" /></g><path
           d="m 280.68,274.32 2.112,0 0,-11.616 -2.112,0 0,11.616 z m 2.352,3.265 c 0,-0.72 -0.504,-1.296 -1.344,-1.296 -0.768,0 -1.272,0.576 -1.272,1.296 0,0.719 0.528,1.32 1.32,1.32 0.768,0 1.296,-0.576 1.296,-1.32"
           style="fill:#ffffff;fill-opacity:1;fill-rule:nonzero;stroke:none"
           id="path114"
           inkscape:connector-curvature="0" /><g
           id="g116"
           transform="translate(286.5117,262.7038)"><path
             d="m 0,0 0,10.009 -1.608,0 0,1.607 1.608,0 0,0.649 c 0,3.048 1.8,5.04 5.064,5.04 1.081,0 2.353,-0.336 2.953,-0.768 l -0.6,-1.608 C 6.889,15.289 6,15.601 4.968,15.601 c -2.232,0 -2.88,-1.56 -2.88,-3.409 l 0,-0.576 6.745,0 0,-11.616 -2.112,0 0,10.009 -4.633,0 L 2.088,0 0,0 Z"
             style="fill:#ffffff;fill-opacity:1;fill-rule:nonzero;stroke:none"
             id="path118"
             inkscape:connector-curvature="0" /></g><g
           id="g120"
           transform="translate(307.1284,263.1111)"><path
             d="m 0,0 c -0.552,-0.264 -1.776,-0.672 -3.336,-0.672 -3.505,0 -5.785,2.376 -5.785,5.929 0,3.576 2.448,6.192 6.241,6.192 1.248,0 2.352,-0.311 2.928,-0.624 L -0.432,9.217 C -0.937,9.481 -1.729,9.77 -2.88,9.77 c -2.665,0 -4.105,-1.993 -4.105,-4.393 0,-2.689 1.728,-4.345 4.032,-4.345 1.201,0 1.993,0.288 2.593,0.552 L 0,0 Z"
             style="fill:#ffffff;fill-opacity:1;fill-rule:nonzero;stroke:none"
             id="path122"
             inkscape:connector-curvature="0" /></g><g
           id="g124"
           transform="translate(315.7197,268.6316)"><path
             d="m 0,0 c -2.304,0.048 -4.92,-0.359 -4.92,-2.616 0,-1.392 0.912,-2.016 1.968,-2.016 1.536,0 2.52,0.96 2.856,1.944 C -0.024,-2.448 0,-2.208 0,-2.016 L 0,0 Z m 2.041,-3.144 c 0,-1.008 0.047,-1.992 0.167,-2.784 l -1.896,0 -0.168,1.464 -0.072,0 c -0.648,-0.912 -1.896,-1.728 -3.552,-1.728 -2.352,0 -3.552,1.656 -3.552,3.337 0,2.807 2.496,4.343 6.984,4.32 l 0,0.239 c 0,0.937 -0.264,2.689 -2.64,2.665 -1.104,0 -2.232,-0.312 -3.048,-0.864 l -0.48,1.416 c 0.96,0.6 2.376,1.008 3.84,1.008 3.552,0 4.417,-2.424 4.417,-4.729 l 0,-4.344 z"
             style="fill:#ffffff;fill-opacity:1;fill-rule:nonzero;stroke:none"
             id="path126"
             inkscape:connector-curvature="0" /></g><g
           id="g128"
           transform="translate(323.6157,277.1042)"><path
             d="m 0,0 0,-2.784 3.024,0 0,-1.608 -3.024,0 0,-6.264 c 0,-1.441 0.408,-2.257 1.584,-2.257 0.576,0 0.912,0.048 1.224,0.144 l 0.096,-1.608 c -0.408,-0.144 -1.056,-0.288 -1.872,-0.288 -0.984,0 -1.776,0.336 -2.28,0.889 -0.576,0.647 -0.816,1.679 -0.816,3.047 l 0,6.337 -1.8,0 0,1.608 1.8,0 0,2.16 L 0,0 Z"
             style="fill:#ffffff;fill-opacity:1;fill-rule:nonzero;stroke:none"
             id="path130"
             inkscape:connector-curvature="0" /></g><path
           d="m 329.015,274.32 2.112,0 0,-11.616 -2.112,0 0,11.616 z m 2.352,3.265 c 0,-0.72 -0.504,-1.296 -1.344,-1.296 -0.768,0 -1.272,0.576 -1.272,1.296 0,0.719 0.528,1.32 1.32,1.32 0.768,0 1.296,-0.576 1.296,-1.32"
           style="fill:#ffffff;fill-opacity:1;fill-rule:nonzero;stroke:none"
           id="path132"
           inkscape:connector-curvature="0" /><g
           id="g134"
           transform="translate(335.9512,268.488)"><path
             d="m 0,0 c 0,-2.544 1.44,-4.465 3.504,-4.465 2.017,0 3.529,1.897 3.529,4.513 0,1.968 -0.985,4.44 -3.481,4.44 C 1.08,4.488 0,2.184 0,0 m 9.193,0.12 c 0,-4.297 -3.001,-6.169 -5.785,-6.169 -3.12,0 -5.568,2.305 -5.568,5.977 0,3.864 2.568,6.144 5.76,6.144 3.337,0 5.593,-2.424 5.593,-5.952"
             style="fill:#ffffff;fill-opacity:1;fill-rule:nonzero;stroke:none"
             id="path136"
             inkscape:connector-curvature="0" /></g><g
           id="g138"
           transform="translate(347.8071,271.1765)"><path
             d="m 0,0 c 0,1.224 -0.024,2.184 -0.096,3.144 l 1.872,0 0.12,-1.92 0.048,0 c 0.576,1.08 1.92,2.16 3.84,2.16 1.609,0 4.105,-0.96 4.105,-4.945 l 0,-6.912 -2.113,0 0,6.697 C 7.776,0.096 7.081,1.655 5.088,1.655 3.72,1.655 2.64,0.672 2.256,-0.505 2.16,-0.769 2.112,-1.129 2.112,-1.488 l 0,-6.985 L 0,-8.473 0,0 Z"
             style="fill:#ffffff;fill-opacity:1;fill-rule:nonzero;stroke:none"
             id="path140"
             inkscape:connector-curvature="0" /></g><g
           id="g142"
           transform="translate(524.5322,213.4596)"><path
             d="m 0,0 0.23,0 c 10.789,0 20.962,1.578 30.786,4.549 10.57,3.68 20.597,11.053 26.653,20.234 9.997,14.621 19.07,42.893 19.466,71.047 l 0,0.077 c -0.396,28.153 -9.469,56.422 -19.466,71.048 -6.056,9.179 -15.855,16.555 -26.423,20.235 -9.826,2.962 -20.453,4.542 -31.246,4.542 -10.789,0 -21.419,-1.58 -31.242,-4.542 -10.569,-3.68 -20.366,-11.056 -26.423,-20.235 -9.999,-14.626 -19.073,-42.895 -19.467,-71.048 l 0,-0.077 C -76.738,67.676 -67.664,39.404 -57.665,24.783 -51.608,15.602 -41.811,8.258 -31.242,4.578 -21.419,1.611 -11.02,0 -0.227,0 L 0,0 Z"
             style="fill:#707070;fill-opacity:1;fill-rule:nonzero;stroke:none"
             id="path144"
             inkscape:connector-curvature="0" /></g><g
           id="g146"
           transform="translate(595.708,309.3283)"><path
             d="m 0,0 c 0.344,-21.203 -6.109,-46.935 -12.348,-60.636 -6.888,-15.647 -17.422,-25.17 -32.894,-29.397 -8.336,-2.138 -17.076,-3.234 -26.059,-3.234 -8.986,0 -17.777,1.096 -26.109,3.234 -15.473,4.227 -26.008,13.75 -32.899,29.397 -6.234,13.701 -12.687,39.433 -12.343,60.636 -0.344,21.201 6.109,46.934 12.343,60.635 6.891,15.643 17.426,25.168 32.899,29.4 8.332,2.134 17.123,3.235 26.109,3.235 8.983,0 17.723,-1.101 26.059,-3.235 15.472,-4.232 26.006,-13.757 32.894,-29.4 C -6.109,46.934 0.344,21.201 0,0"
             style="fill:#ffffff;fill-opacity:1;fill-rule:nonzero;stroke:none"
             id="path148"
             inkscape:connector-curvature="0" /></g><g
           id="g150"
           transform="translate(524.6552,379.9479)"><path
             d="m 0,0 c 7.4,0 14.799,-1.035 21.618,-2.876 7.263,-2.074 13.23,-7.079 16.226,-13.9 6.509,-13.974 10.792,-34.08 10.792,-53.844 0,-19.765 -4.283,-39.87 -10.792,-53.843 -2.996,-6.822 -8.963,-11.824 -16.226,-13.9 C 14.799,-140.207 7.4,-141.24 0,-141.24 l -0.242,0 c -7.404,0 -14.799,1.033 -21.619,2.877 -7.261,2.076 -13.231,7.078 -16.227,13.9 -6.51,13.973 -10.789,34.078 -10.789,53.843 0,19.764 4.279,39.87 10.789,53.844 2.996,6.821 8.966,11.826 16.227,13.9 C -15.041,-1.035 -7.646,0 -0.242,0 L 0,0 Z"
             style="fill:#707070;fill-opacity:1;fill-rule:nonzero;stroke:none"
             id="path152"
             inkscape:connector-curvature="0" /></g><g
           id="g154"
           transform="translate(535.1308,352.9679)"><path
             d="M 0,0 C -1.031,1.742 -0.187,0.186 -1.258,2.208"
             style="fill:#ffffff;fill-opacity:1;fill-rule:nonzero;stroke:none"
             id="path156"
             inkscape:connector-curvature="0" /></g><g
           id="g158"
           transform="translate(513.1103,313.1149)"><path
             d="m 0,0 0,-7.106 -24.451,-0.008 0,7.107 L 0,0 Z"
             style="fill:#ffffff;fill-opacity:1;fill-rule:nonzero;stroke:none"
             id="path160"
             inkscape:connector-curvature="0" /></g><g
           id="g162"
           transform="translate(507.579,251.5651)"><path
             d="m 0,0 c -0.522,1.125 -0.715,1.527 -0.771,2.678 5.127,0 8.564,0 13.983,-0.004 C 13.182,0.736 12.078,-1.166 10.323,-2.43 8.387,-3.842 5.161,-4.152 3.012,-2.951 1.782,-2.367 0.678,-1.166 0,0"
             style="fill:#ffffff;fill-opacity:1;fill-rule:nonzero;stroke:none"
             id="path164"
             inkscape:connector-curvature="0" /></g><g
           id="g166"
           transform="translate(522.6669,257.2507)"><path
             d="m 0,0 -7.498,-0.012 0,3.479 7.525,0.004 2.37,2.796 C 3.553,4.924 3.631,4.828 4.83,3.471 l 7.516,0 0,-3.483 L 4.821,0 4.821,-8.637 0,-8.637 0,0 Z"
             style="fill:#ffffff;fill-opacity:1;fill-rule:nonzero;stroke:none"
             id="path168"
             inkscape:connector-curvature="0" /></g><g
           id="g170"
           transform="translate(523.5576,268.03)"><path
             d="M 0,0 C 1.542,0.512 3.711,1.396 4.148,2.889 4.039,5.199 5.625,7.062 6.82,8.904 7.412,9.713 7.492,10.191 7.315,11.061 9.715,10.969 12.14,8.971 13.06,6.729 14.013,4.453 13.642,1.473 12.17,-0.43 10.328,-2.674 7.775,-3.842 4.791,-3.318 2.918,-2.891 1.079,-1.752 0,0"
             style="fill:#ffffff;fill-opacity:1;fill-rule:nonzero;stroke:none"
             id="path172"
             inkscape:connector-curvature="0" /></g><g
           id="g174"
           transform="translate(505.5205,299.216)"><path
             d="m 0,0 c -1.345,0.658 -3.151,0.931 -4.639,0.222 -1.199,-0.331 -2.465,-1.753 -2.582,-3.165 -0.076,-4.233 0.077,-5.539 0,-10.186 -0.076,-0.731 -0.461,-1.077 -1.384,-1.077 -0.769,0.041 -1.342,0.422 -1.334,1.09 l 0,10.389 c -0.061,1.105 -0.247,2.18 -1.016,3.012 l -5.375,-1.754 -0.493,-0.178 c 1.362,-1.007 1.997,-1.037 2.108,-2.71 l -0.012,-13.292 0.084,-0.703 0.191,-0.461 0.153,-0.424 0.194,-0.345 c 0.882,-1.422 2.38,-1.997 3.433,-2.258 0.461,-0.139 1.274,-0.205 1.736,-0.209 1.393,-0.01 2.713,0.086 4.135,1.084 2.213,1.73 1.727,4.763 1.783,9.173 0.016,1.237 0.098,1.935 0.868,2.643 0.645,0.49 1.537,0.643 2.365,0.46 0.937,-0.253 1.09,-0.33 2.029,-0.945 C 2.267,-5.831 2.381,-1.147 0,0"
             style="fill:#ffffff;fill-opacity:1;fill-rule:nonzero;stroke:none"
             id="path176"
             inkscape:connector-curvature="0" /></g><g
           id="g178"
           transform="translate(555.4033,282.5397)"><path
             d="m 0,0 c -3.926,3.863 -10.725,9.241 -11.273,11.521 -0.586,1.535 -0.403,3.38 -0.434,5.159 1.134,0.895 2.076,1.669 3.444,2.738 -0.1,-2.721 -0.485,-5.484 0.826,-7.099 C -4.234,9.124 -1.32,6.234 1.568,3.408 2.643,2.24 3.503,0.582 2.795,-0.957 2.459,-1.691 1.998,-2.523 1.508,-3.197 1.508,-1.699 0.852,-0.844 0,0"
             style="fill:#ffffff;fill-opacity:1;fill-rule:nonzero;stroke:none"
             id="path180"
             inkscape:connector-curvature="0" /></g><g
           id="g182"
           transform="translate(533.1728,302.1286)"><path
             d="m 0,0 c 2.992,0.046 3.961,-0.036 7.076,0.019 l 0,-20.993 -7.103,0 L 0,0 Z"
             style="fill:#ffffff;fill-opacity:1;fill-rule:nonzero;stroke:none"
             id="path184"
             inkscape:connector-curvature="0" /></g><g
           id="g186"
           transform="translate(549.0497,300.1828)"><path
             d="m 0,0 c 0.754,0.83 1.023,1.136 1.904,1.998 l 1.786,-2.15 0,-5.97 C 6.208,-4.894 5.593,-1.32 5.593,1.782 7.091,0.56 7.846,-0.129 9.279,-1.475 10.087,-5.047 7.937,-7.082 6.331,-9.585 L 0,-3.534 0,0 Z"
             style="fill:#ffffff;fill-opacity:1;fill-rule:nonzero;stroke:none"
             id="path188"
             inkscape:connector-curvature="0" /></g><g
           id="g190"
           transform="translate(554.8203,316.238)"><path
             d="m 0,0 0.953,3.996 3.104,0.46 -0.011,9.919 C 2.849,14.197 2.356,14.066 1.383,13.954 l 0,7.527 c -1.631,-0.34 -3.351,-0.924 -5.072,-1.323 l 0,-12.476 C -3.712,7.079 -4.669,6.876 -4.87,6.885 l -0.262,0 c -0.616,0 -1.232,0.421 -1.232,0.845 l 0,12.023 -4.959,-0.638 0,-5.073 c -1.754,-3.562 -4.332,-6.791 -6.855,-10.046 2.674,-0.182 2.87,-0.182 5.532,-0.429 L -11.009,0 0,0 Z"
             style="fill:#ffffff;fill-opacity:1;fill-rule:nonzero;stroke:none"
             id="path192"
             inkscape:connector-curvature="0" /></g><g
           id="g194"
           transform="translate(498.4091,318.7082)"><path
             d="M 0,0 C -0.076,3.283 -0.216,5.43 -0.288,8.664 0.725,8.941 1.709,8.296 2.507,7.712 2.377,3.588 2.377,3.628 2.293,-0.686 l -2.274,0 L 0,0 Z"
             style="fill:#ffffff;fill-opacity:1;fill-rule:nonzero;stroke:none"
             id="path196"
             inkscape:connector-curvature="0" /></g><g
           id="g198"
           transform="translate(497.9697,337.5685)"><path
             d="m 0,0 c -0.545,3.232 -0.584,3.472 -0.89,5.833 l -2.061,0 0,2.276 c 3.56,0.01 5.529,-0.006 9.09,-0.006 l 0.004,-2.27 -2.116,0 -0.925,-7.614 C 2.18,-0.952 1.135,-0.369 0,0"
             style="fill:#ffffff;fill-opacity:1;fill-rule:nonzero;stroke:none"
             id="path200"
             inkscape:connector-curvature="0" /></g><g
           id="g202"
           transform="translate(497.5966,347.3044)"><path
             d="m 0,0 c -3.033,3.257 -3.256,8.153 -2.672,12.576 l 0.012,0.017 c 0.557,-1.648 1.593,-2.821 3.23,-3.591 -0.184,0.863 -0.953,1.661 -1.199,2.584 -0.707,1.78 -0.646,4.33 0.522,5.899 0.832,1.229 2.015,1.735 3.32,2.15 -0.492,-1.474 -0.645,-3.25 -0.038,-4.747 0.848,0.664 0.894,0.708 1.555,1.338 0.252,0.243 0.366,0.325 0.579,0.478 1.207,-2.579 2.586,-6.148 1.787,-9.159 L 6.592,6.238 C 6.406,8.372 6.059,9.389 4.627,10.171 4.446,8.928 5.232,8.043 5.424,6.423 6,3.917 5.54,1.452 3.996,0 L 0,0 Z"
             style="fill:#ffffff;fill-opacity:1;fill-rule:nonzero;stroke:none"
             id="path204"
             inkscape:connector-curvature="0" /></g><g
           id="g206"
           transform="translate(535.1308,352.9679)"><path
             d="m 0,0 -3.144,-3.439 c -0.839,0.806 -0.918,0.897 -1.765,1.781 1.612,1.69 1.775,1.875 3.651,3.866"
             style="fill:#ffffff;fill-opacity:1;fill-rule:nonzero;stroke:none"
             id="path208"
             inkscape:connector-curvature="0" /></g><g
           id="g210"
           transform="translate(539.2285,361.341)"><path
             d="M 0,0 C 0.649,2.98 0.979,6.413 4.259,7.661 5.493,8.007 7.175,7.844 8.221,6.923 9.634,5.909 10.036,4.189 9.696,2.592 8.721,-0.865 4.866,-1.515 1.731,-2.345 L 0,0 Z"
             style="fill:#ffffff;fill-opacity:1;fill-rule:nonzero;stroke:none"
             id="path212"
             inkscape:connector-curvature="0" /></g><g
           id="g214"
           transform="translate(560.9462,313.1149)"><path
             d="m 0,0 0,-7.151 -24.453,0.037 0,7.107 L 0,0 Z"
             style="fill:#ffffff;fill-opacity:1;fill-rule:nonzero;stroke:none"
             id="path216"
             inkscape:connector-curvature="0" /></g><g
           id="g218"
           transform="translate(501.9003,265.3561)"><path
             d="m 0,0 c -0.984,4.516 4.456,6.145 5.747,9.895 1.014,6.267 1.32,12.871 5.682,17.758 0.431,9.221 3.412,17.363 9.955,24.059 -0.306,2.061 -1.165,3.873 -1.778,5.81 -0.861,0.034 -1.441,0.189 -2.214,0.89 -0.569,0.795 -0.8,1.39 -0.95,2.365 -2.276,-2.825 -5.105,-5.991 -8.209,-7.896 -0.572,-0.318 -1.301,0.353 -2.334,1.322 -3.809,3.01 -4.455,9.834 -10.262,9.525 -2.644,0.891 -2.519,3.996 -2.949,6.331 0.983,0.706 2.567,0.673 3.749,0.214 3.625,-1.937 6.039,-6.022 9.462,-8.757 0.918,-0.733 1.744,-1.693 2.588,-2.042 2.246,1.932 4.055,3.593 5.569,6.589 1.059,1.691 2.812,2.429 4.75,2.458 l 1.38,1.629 -0.739,4.058 c -1.407,1.811 -2.579,3.713 -3.53,5.744 0.492,2.335 0.801,5.039 3.166,6.329 1.537,0.952 2.799,-1.228 4.055,0.155 0.922,0.196 1.713,-0.061 2.357,-0.585 0.953,-1.659 2.095,-3.317 2.157,-5.252 -0.588,-1.876 -1.474,-3.627 -2.366,-5.382 -0.205,-0.398 -0.744,-0.521 -1.105,-0.797 0.214,-0.796 0.394,-1.688 0.951,-2.303 0.704,-0.154 1.361,-0.274 2.214,-0.125 0.673,2.061 2.885,2.979 4.731,3.535 l 4.053,2.641 c -0.642,3.074 1.323,5.778 0.219,8.854 -2.307,1.07 -2.973,3.699 -3.471,5.742 0.363,1.291 0.996,2.642 1.917,3.719 l 0.141,-0.154 c 2.209,-2.58 4.239,-5.222 4.943,-8.419 0.4,-4.085 0.802,-8.266 0.522,-12.536 -2.179,-2.182 -4.82,-3.473 -7.312,-5.101 L 31.247,66.74 C 31.031,63.083 29.955,59.794 29.403,56.261 30.97,51.99 32.837,46.303 31.462,42.34 30.419,39.982 28.192,38.698 26.541,37.396 l -4.142,-3.32 c 4.157,-4.593 3.155,-9.8 3.337,-16.455 -0.04,-1.605 2.836,-2.949 1.298,-4.779 -1.28,-2.047 -3.285,-3.715 -2.947,-6.422 -1.273,-2.139 -4.329,-2.6 -5.764,-2.582 -0.307,-0.018 -0.56,0.215 -0.56,0.525 0.308,1.108 1.165,1.965 1.627,3.01 1.474,2.272 0.796,5.408 2.637,7.529 -1.518,4.94 -3.807,9.526 -4.422,14.809 l -0.053,0.322 C 16.323,27.616 16.995,25.236 17.645,23.328 13.556,18.166 9.126,13.213 9.126,6.42 7.374,3.318 4.886,0.49 3.597,-2.799 3.15,-3.344 2.343,-2.863 1.843,-2.58 0.671,-1.807 0.403,-1.057 0,0"
             style="fill:#ffffff;fill-opacity:1;fill-rule:nonzero;stroke:none"
             id="path220"
             inkscape:connector-curvature="0" /></g><g
           id="g222"
           transform="translate(546.7851,287.6218)"><path
             d="m 0,0 c 3.927,-3.861 10.72,-9.242 11.276,-11.521 0.582,-1.538 0.401,-3.379 0.43,-5.163 -1.135,-0.89 -2.074,-1.668 -3.441,-2.734 0.097,2.719 0.484,5.484 -0.83,7.098 -3.208,3.195 -6.115,6.082 -9.003,8.912 -1.074,1.164 -1.937,2.826 -1.228,4.361 0.337,0.738 0.795,1.568 1.289,2.246 C -1.507,1.699 -0.858,0.844 0,0"
             style="fill:#ffffff;fill-opacity:1;fill-rule:nonzero;stroke:none"
             id="path224"
             inkscape:connector-curvature="0" /></g><g
           id="g226"
           transform="translate(553.1376,269.9772)"><path
             d="m 0,0 c -0.75,-0.83 -1.023,-1.135 -1.906,-1.994 l -1.782,2.148 0,5.969 c -2.521,-1.23 -1.904,-4.801 -1.904,-7.902 -1.498,1.218 -2.254,1.91 -3.689,3.256 -0.803,3.57 1.344,5.607 2.95,8.111 L 0,3.535 0,0 Z"
             style="fill:#ffffff;fill-opacity:1;fill-rule:nonzero;stroke:none"
             id="path228"
             inkscape:connector-curvature="0" /></g><g
           id="g230"
           transform="translate(542.5595,251.5651)"><path
             d="m 0,0 c 0.524,1.125 0.713,1.527 0.769,2.678 -5.127,0 -8.561,0 -13.986,-0.004 0.032,-1.938 1.142,-3.84 2.893,-5.104 1.935,-1.412 5.164,-1.722 7.314,-0.521 C -1.782,-2.367 -0.677,-1.166 0,0"
             style="fill:#ffffff;fill-opacity:1;fill-rule:nonzero;stroke:none"
             id="path232"
             inkscape:connector-curvature="0" /></g><g
           id="g234"
           transform="translate(526.999,221.0593)"><path
             d="m 0,0 c -0.068,3.881 3.727,5.842 6.115,8.416 0.649,0.621 0.893,1.85 0.424,2.871 -0.28,0.641 -0.705,0.949 -1.217,1.078 C 4.484,12.561 3.771,12.432 3.244,11.969 2.499,11.277 2.295,10.385 2.328,9.416 L -0.316,9.26 c -0.234,1.469 0.123,2.896 1.021,4.008 1.238,1.324 3.104,1.697 4.916,1.576 C 7.066,14.611 8.756,13.729 9.354,12.215 10.119,10.574 9.863,8.471 8.644,7.086 7.078,5.414 5.028,4.51 3.73,2.625 L 10.441,3.02 C 10.489,2.188 10.537,1.389 10.582,0.627 L 0,0 Z"
             style="fill:#707070;fill-opacity:1;fill-rule:nonzero;stroke:none"
             id="path236"
             inkscape:connector-curvature="0" /></g><g
           id="g238"
           transform="translate(503.1923,237.8268)"><path
             d="m 0,0 -0.039,-0.129 -4.374,-13.394 -2.788,0.914 2.998,9.175 0.05,0.157 c -1.111,0.386 -2.454,0.771 -3.54,1.158 l 0.57,1.728 c 1.412,-0.365 2.867,-0.605 4.096,0.412 0.445,0.35 0.522,0.448 0.763,0.717 L 0,0 Z"
             style="fill:#707070;fill-opacity:1;fill-rule:nonzero;stroke:none"
             id="path240"
             inkscape:connector-curvature="0" /></g><g
           id="g242"
           transform="translate(552.9208,227.7721)"><path
             d="m 0,0 c -0.361,-0.416 -0.996,-0.734 -1.683,-0.902 -0.684,-0.174 -1.395,-0.186 -1.905,0.015 -0.691,0.256 -1.166,0.805 -1.34,1.416 -0.266,0.916 0,1.885 0.789,2.436 0.332,0.234 0.822,0.465 1.354,0.605 0.535,0.123 1.077,0.147 1.478,0.094 C -0.352,3.545 0.339,2.809 0.527,1.875 0.656,1.256 0.492,0.549 0,0 m -5.861,6.455 c -0.33,0.582 -0.336,1.563 0.259,2.145 0.344,0.363 0.849,0.627 1.391,0.756 0.537,0.138 1.111,0.14 1.582,-0.022 0.794,-0.24 1.246,-1.109 1.225,-1.777 C -1.411,7.035 -1.649,6.625 -1.982,6.307 -2.326,6.006 -2.799,5.785 -3.303,5.672 -3.804,5.535 -4.324,5.512 -4.773,5.617 -5.213,5.748 -5.613,5.996 -5.861,6.455 M 3.36,2.633 C 3.01,3.949 2.279,5.012 0.805,5.434 l -0.852,0.187 c 0.871,0.617 1.676,1.86 1.381,3.071 -0.198,1.38 -1.2,2.261 -2.449,2.74 -1.094,0.328 -2.381,0.277 -3.598,-0.045 -1.228,-0.281 -2.39,-0.83 -3.206,-1.633 -0.883,-1.008 -1.36,-2.25 -0.895,-3.568 0.302,-1.209 1.595,-1.932 2.65,-2.075 l -0.664,-0.56 c -1.115,-1.061 -1.264,-2.34 -0.961,-3.67 0.334,-1.484 1.523,-2.641 2.969,-3.068 1.092,-0.284 2.418,-0.27 3.693,0.043 1.272,0.316 2.453,0.919 3.285,1.677 1.083,1.055 1.596,2.627 1.202,4.1"
             style="fill:#707070;fill-opacity:1;fill-rule:nonzero;stroke:none"
             id="path244"
             inkscape:connector-curvature="0" /></g><g
           id="g246"
           transform="translate(516.0712,223.8581)"><path
             d="m 0,0 c -0.465,-0.287 -1.166,-0.406 -1.871,-0.359 -0.707,0.037 -1.391,0.24 -1.817,0.584 -0.582,0.447 -0.873,1.115 -0.855,1.752 0.018,0.945 0.559,1.798 1.476,2.087 0.389,0.123 0.923,0.198 1.473,0.172 C -1.043,4.195 -0.523,4.059 -0.153,3.887 0.723,3.488 1.158,2.578 1.064,1.635 1.004,1.002 0.633,0.377 0,0 m -3.672,7.91 c -0.144,0.656 0.145,1.588 0.887,1.969 0.435,0.246 1,0.346 1.554,0.309 C -0.68,10.156 -0.131,9.99 0.27,9.693 0.961,9.227 1.133,8.266 0.911,7.631 0.752,7.135 0.399,6.816 -0.01,6.609 -0.431,6.424 -0.946,6.355 -1.463,6.396 -1.98,6.418 -2.486,6.551 -2.881,6.785 -3.264,7.039 -3.572,7.398 -3.672,7.91 M 3.993,1.512 C 4.049,2.875 3.671,4.104 2.388,4.951 l -0.755,0.43 c 1.012,0.328 2.15,1.277 2.234,2.517 0.219,1.379 -0.476,2.518 -1.524,3.348 -0.949,0.641 -2.192,0.973 -3.448,1.027 -1.256,0.098 -2.53,-0.084 -3.549,-0.603 C -5.797,10.973 -6.623,9.926 -6.572,8.533 -6.642,7.289 -5.623,6.209 -4.656,5.76 L -5.461,5.426 C -6.839,4.742 -7.359,3.564 -7.469,2.207 c -0.122,-1.52 0.666,-2.977 1.92,-3.814 0.958,-0.596 2.227,-0.977 3.537,-1.055 1.309,-0.078 2.617,0.142 3.643,0.621 1.342,0.686 2.301,2.029 2.362,3.553"
             style="fill:#707070;fill-opacity:1;fill-rule:nonzero;stroke:none"
             id="path248"
             inkscape:connector-curvature="0" /></g><g
           id="g250"
           transform="translate(583.1494,361.3342)"><path
             d="m 0,0 -13.039,-5.624 -1.174,2.72 L -1.175,2.72 0,0 Z"
             style="fill:#707070;fill-opacity:1;fill-rule:nonzero;stroke:none"
             id="path252"
             inkscape:connector-curvature="0" /></g><g
           id="g254"
           transform="translate(534.0146,383.8849)"><path
             d="M 0,0 -3.354,14.611 -0.264,14.3 C 0.359,10.684 0.994,6.575 1.725,3.533 3.049,6.37 4.501,10.264 5.836,13.679 L 8.879,13.373 2.701,-0.274 0,0 Z"
             style="fill:#707070;fill-opacity:1;fill-rule:nonzero;stroke:none"
             id="path256"
             inkscape:connector-curvature="0" /></g><g
           id="g258"
           transform="translate(478.5361,375.5099)"><path
             d="m 0,0 -3.168,-5.665 -2.67,1.493 3.627,6.505 -2.051,1.151 -5.082,-9.109 12.399,-6.924 5.084,9.11 L 6.08,-2.294 2.44,-8.814 -1.026,-6.868 2.152,-1.19 0,0 Z"
             style="fill:#707070;fill-opacity:1;fill-rule:nonzero;stroke:none"
             id="path260"
             inkscape:connector-curvature="0" /></g><g
           id="g262"
           transform="translate(469.1376,308.7472)"><path
             d="m 0,0 -3.961,-0.007 -0.025,0 c 0.066,3.159 -0.422,5.011 1.453,5.376 0.656,0.175 1.47,0.113 1.949,-0.383 C 0.217,4.214 -0.031,2.921 0,0 m -6.127,-0.008 -3.482,-0.003 c 0.099,3.261 -0.437,4.997 1.556,5.216 1.179,0.085 1.506,-0.182 1.772,-0.887 0.224,-0.735 0.156,-1.498 0.154,-4.326 M 1.877,6.424 C 1.211,7.949 -0.433,8.555 -2.131,8.47 -3.568,8.308 -4.654,7.332 -5.258,5.849 -5.479,6.72 -6.281,7.809 -7.645,7.968 -9.069,8.144 -10.428,7.759 -11.116,6.553 -12.055,5.349 -11.65,0.068 -11.748,-2.976 L 2.357,-2.962 2.363,-1.93 C 2.288,3.68 2.607,4.349 1.877,6.424"
             style="fill:#707070;fill-opacity:1;fill-rule:nonzero;stroke:none"
             id="path264"
             inkscape:connector-curvature="0" /></g><g
           id="g266"
           transform="translate(583.2695,353.4377)"><path
             d="M 0,0 2.259,0.581 5.112,-10.525 2.858,-11.104 1.802,-6.997 -9.603,-9.931 -10.339,-7.067 1.06,-4.128 0,0 Z"
             style="fill:#707070;fill-opacity:1;fill-rule:nonzero;stroke:none"
             id="path268"
             inkscape:connector-curvature="0" /></g><g
           id="g270"
           transform="translate(511.5781,383.0607)"><path
             d="m 0,0 c -1.577,-0.265 -3.202,-0.112 -4.513,0.69 -1.126,0.657 -1.529,1.501 -1.738,2.54 l -1.63,10.145 2.89,0.464 1.637,-10.143 c 0.165,-0.833 0.896,-1.345 1.665,-1.5 0.428,-0.109 0.901,-0.102 1.36,-0.016"
             style="fill:#707070;fill-opacity:1;fill-rule:nonzero;stroke:none"
             id="path272"
             inkscape:connector-curvature="0" /></g><g
           id="g274"
           transform="translate(511.6152,383.068)"><path
             d="M 0,0 C 1.579,0.243 3.076,0.897 4.069,2.066 4.93,3.042 5.053,3.972 4.927,5.025 L 3.299,15.166 0.407,14.707 2.028,4.558 C 2.142,3.794 1.597,3.003 0.917,2.614 0.544,2.376 0.095,2.234 -0.366,2.173"
             style="fill:#707070;fill-opacity:1;fill-rule:nonzero;stroke:none"
             id="path276"
             inkscape:connector-curvature="0" /></g><g
           id="g278"
           transform="translate(581.624,328.8464)"><path
             d="M 0,0 -0.492,3.504 5.635,2.578 5.658,2.58 5.646,2.575 5.66,2.572 5.635,2.57 0,0 Z M 8.201,4.472 -6.545,7.435 -6.143,4.556 -2.932,3.966 -2.223,-1.115 -5.147,-2.561 -4.746,-5.44 8.625,1.45 8.201,4.472 Z"
             style="fill:#707070;fill-opacity:1;fill-rule:nonzero;stroke:none"
             id="path280"
             inkscape:connector-curvature="0" /></g><g
           id="g282"
           transform="translate(587.6904,308.924)"><path
             d="M 0,0 0.266,0.046 0.59,0.132 0.824,0.21 C 1.76,0.72 1.98,1.967 1.931,2.985 1.894,4.013 1.578,5.055 0.613,5.424 0.117,5.563 -0.521,5.606 -0.851,5.09 c -1.596,-2.369 -0.487,-7.399 -4.62,-8.282 -1.8,-0.297 -3.378,0.484 -4.31,1.924 -1.287,2.29 -1.389,5.867 0.076,8.081 0.886,1.157 2.088,1.863 3.527,1.874 L -6.009,5.969 C -6.895,5.852 -7.768,5.398 -8.172,4.531 -8.771,3.107 -8.626,0.843 -7.584,0.006 c 0.382,-0.428 1.266,-0.377 1.748,-0.12 1.638,1.18 1.309,4.115 2.126,6.083 0.282,0.834 1.048,1.688 1.832,2.106 1.45,0.623 3.321,0.402 4.487,-0.758 C 4.497,5.537 4.59,2.042 3.71,-0.081 3.218,-1.553 1.623,-2.63 -0.038,-2.732 L -0.209,-0.005 0,0 Z"
             style="fill:#707070;fill-opacity:1;fill-rule:nonzero;stroke:none"
             id="path284"
             inkscape:connector-curvature="0" /></g><g
           id="g286"
           transform="translate(473.4169,330.3371)"><path
             d="m 0,0 c -0.234,-1.58 -0.884,-3.08 -2.054,-4.077 -0.971,-0.865 -1.899,-0.99 -2.952,-0.869 l -10.149,1.594 0.454,2.893 10.149,-1.585 c 0.847,-0.102 1.555,0.437 1.941,1.118 0.236,0.376 0.377,0.823 0.437,1.286"
             style="fill:#707070;fill-opacity:1;fill-rule:nonzero;stroke:none"
             id="path288"
             inkscape:connector-curvature="0" /></g><g
           id="g290"
           transform="translate(473.4228,330.3722)"><path
             d="M 0,0 C 0.261,1.579 0.101,3.204 -0.704,4.514 -1.364,5.635 -2.211,6.037 -3.25,6.243 L -13.398,7.837 -13.853,4.944 -3.704,3.342 c 0.761,-0.131 1.345,-0.89 1.503,-1.659 0.11,-0.427 0.103,-0.899 0.021,-1.358"
             style="fill:#707070;fill-opacity:1;fill-rule:nonzero;stroke:none"
             id="path292"
             inkscape:connector-curvature="0" /></g><g
           id="g294"
           transform="translate(490.8974,381.8664)"><path
             d="M 0,0 -1.573,5.992 -1.586,6.014 -1.577,6.005 -1.581,6.019 -1.565,5.996 3.024,1.838 0,0 Z m -1.726,9.186 -2.608,-1.584 3.121,-14.714 2.485,1.509 -0.729,3.178 4.384,2.665 2.487,-2.112 2.481,1.508 -11.621,9.55 z"
             style="fill:#707070;fill-opacity:1;fill-rule:nonzero;stroke:none"
             id="path296"
             inkscape:connector-curvature="0" /></g><g
           id="g298"
           transform="translate(558.08,386.4338)"><path
             d="m 0,0 -5.988,2.508 1.182,2.82 6.871,-2.868 0.914,2.168 -9.627,4.021 -5.478,-13.102 9.626,-4.021 0.905,2.172 -6.888,2.88 1.538,3.664 L -0.94,-2.274 0,0 Z"
             style="fill:#707070;fill-opacity:1;fill-rule:nonzero;stroke:none"
             id="path300"
             inkscape:connector-curvature="0" /></g><g
           id="g302"
           transform="translate(468.8115,349.8859)"><path
             d="m 0,0 -3.557,1.06 c 0.775,2.426 1.119,4.869 2.83,4.717 C -0.041,5.666 0.434,5.483 0.832,4.989 1.497,4.16 0.643,2.347 0,0 M 2.832,5.082 C 2.823,6.057 2.768,6.87 1.959,7.648 1.18,8.455 -0.059,8.831 -1.28,8.738 -4.439,8.249 -4.859,4.618 -6.607,-1.12 L 6.992,-5.174 7.836,-2.34 2.467,-0.739 2.242,-0.669 C 2.612,0.636 3.136,2.294 3.397,2.651 4.375,4.904 7.98,2.69 9.403,2.908 L 10.24,5.721 C 7.807,5.586 4.553,7.758 2.832,5.082"
             style="fill:#707070;fill-opacity:1;fill-rule:nonzero;stroke:none"
             id="path304"
             inkscape:connector-curvature="0" /></g><g
           id="g306"
           transform="translate(572.9814,374.4196)"><path
             d="m 0,0 c -0.492,-0.487 -0.922,-0.764 -1.556,-0.798 -1.063,-0.05 -2.024,1.712 -3.545,3.61 l 2.953,2.252 C -0.644,3.012 1.131,1.293 0,0 m -2.121,8.812 -11.273,-8.609 1.79,-2.351 4.456,3.399 0.189,0.139 c 0.838,-1.066 1.869,-2.466 2.004,-2.886 1.25,-2.113 -2.662,-3.73 -3.322,-5.006 l 1.779,-2.333 c 1.32,2.048 4.992,3.399 3.845,6.369 0.792,-0.567 1.486,-1.004 2.585,-0.806 1.111,0.156 2.145,0.935 2.789,1.978 1.463,2.841 -1.227,5.315 -4.842,10.106"
             style="fill:#707070;fill-opacity:1;fill-rule:nonzero;stroke:none"
             id="path308"
             inkscape:connector-curvature="0" /></g></g></g></g></svg>