<?xml version="1.0" encoding="UTF-8" standalone="no"?>
<!-- Created with Inkscape (http://www.inkscape.org/) -->

<svg
   xmlns:dc="http://purl.org/dc/elements/1.1/"
   xmlns:cc="http://creativecommons.org/ns#"
   xmlns:rdf="http://www.w3.org/1999/02/22-rdf-syntax-ns#"
   xmlns:svg="http://www.w3.org/2000/svg"
   xmlns="http://www.w3.org/2000/svg"
   xmlns:sodipodi="http://sodipodi.sourceforge.net/DTD/sodipodi-0.dtd"
   xmlns:inkscape="http://www.inkscape.org/namespaces/inkscape"
   id="svg2"
   version="1.1"
   inkscape:version="0.91 r13725"
   xml:space="preserve"
   width="645.43018"
   height="652.11853"
   viewBox="0 0 645.43014 652.11853"
   sodipodi:docname="pmeexcelecia_color.svg"><metadata
     id="metadata8"><rdf:RDF><cc:Work
         rdf:about=""><dc:format>image/svg+xml</dc:format><dc:type
           rdf:resource="http://purl.org/dc/dcmitype/StillImage" /><dc:title></dc:title></cc:Work></rdf:RDF></metadata><defs
     id="defs6"><clipPath
       clipPathUnits="userSpaceOnUse"
       id="clipPath16"><path
         d="m 217.89,911.484 c -23.38,0 -42.33,-18.962 -42.33,-42.318 l 0,0 0,-491.176 c 0,-23.395 18.95,-42.331 42.33,-42.331 l 0,0 430.405,0 c 23.354,0 42.304,18.936 42.304,42.331 l 0,0 0,491.176 c 0,23.356 -18.95,42.318 -42.304,42.318 l 0,0 -430.405,0 z"
         id="path18"
         inkscape:connector-curvature="0" /></clipPath><clipPath
       clipPathUnits="userSpaceOnUse"
       id="clipPath30"><path
         d="m 0,1190.55 841.89,0 L 841.89,0 0,0 0,1190.55 Z"
         id="path32"
         inkscape:connector-curvature="0" /></clipPath></defs><sodipodi:namedview
     pagecolor="#ffffff"
     bordercolor="#666666"
     borderopacity="1"
     objecttolerance="10"
     gridtolerance="10"
     guidetolerance="10"
     inkscape:pageopacity="0"
     inkscape:pageshadow="2"
     inkscape:window-width="1280"
     inkscape:window-height="971"
     id="namedview4"
     showgrid="false"
     fit-margin-top="0"
     fit-margin-left="0"
     fit-margin-right="0"
     fit-margin-bottom="0"
     inkscape:zoom="0.89707622"
     inkscape:cx="340.79517"
     inkscape:cy="374.77187"
     inkscape:window-x="1912"
     inkscape:window-y="-8"
     inkscape:window-maximized="1"
     inkscape:current-layer="g10" /><g
     id="g10"
     inkscape:groupmode="layer"
     inkscape:label="PME_excelencia_12"
     transform="matrix(1.25,0,0,-1.25,-220.56476,1226.5762)"><g
       id="g26"
       transform="translate(0,70.4)"><g
         id="g28"
         clip-path="url(#clipPath30)"><g
           id="g34"
           transform="translate(369.7646,476.5059)" /><g
           id="g38"
           transform="translate(477.4443,630.4971)" /><g
           id="g42"
           transform="translate(466.9678,423.9941)" /><g
           id="g46"
           transform="translate(502.6631,383.2568)" /><g
           id="g50"
           transform="translate(559.9033,383.2568)" /><g
           id="g54"
           transform="translate(595.249,308.3832)" /><g
           id="g58"
           transform="translate(626.069,254.1601)" /><g
           id="g62"
           transform="translate(643.9397,297.5811)" /></g></g><rect
       style="opacity:1;fill:#e3ba2a;fill-opacity:1;stroke:none;stroke-opacity:1"
       id="rect5758"
       width="516.34412"
       height="521.69482"
       x="176.45178"
       y="-981.26099"
       transform="scale(1,-1)"
       ry="47.921173" /><path
       d="m 366.04881,634.06525 c -0.90852,12.77162 -0.95766,26.75866 -0.201,41.69451 3.3813,-1.76818 6.78493,-3.54828 10.29129,-5.30369 12.38885,-6.27722 24.82683,-12.00166 37.0111,-17.19719 -16.67509,-8.45508 -32.64535,-14.93756 -47.10139,-19.19363 m 216.05178,7.23967 c -15.11086,-19.59139 -71.67184,-14.11906 -137.19034,10.60653 15.79337,9.54955 31.78953,20.52914 47.43103,32.77269 77.52233,60.58749 117.48324,128.82517 89.3305,152.42137 -2.87566,2.40442 -6.33378,4.25607 -10.31719,5.56858 25.35301,-22.14145 -12.8918,-85.97742 -85.85094,-143.00554 -19.90452,-15.56188 -40.33969,-29.01999 -60.09324,-39.92719 -10.89786,4.61806 -21.92347,9.74119 -32.97142,15.33276 -8.95752,4.51074 -17.53449,9.16372 -25.70856,13.89079 1.79115,22.80325 5.44849,47.49136 11.02472,73.07123 23.41178,107.50478 72.0256,190.40152 108.60522,185.19492 12.0592,-1.74519 21.31957,-12.90619 27.44879,-30.95766 -5.65217,30.82309 -17.18073,50.47497 -33.85583,52.8564 -38.47261,5.50725 -89.88794,-82.83715 -114.81304,-197.28008 -5.72542,-26.20418 -9.53463,-51.52087 -11.60539,-75.03105 -62.36054,38.63938 -97.75649,80.71972 -81.76212,101.41665 10.19213,13.19408 39.25518,15.02103 77.17213,7.20475 -51.74229,14.27491 -92.63586,14.75614 -105.32755,-1.72049 -18.54218,-24.00332 29.29086,-75.83763 108.93665,-120.67075 -1.1131,-19.00285 -1.01037,-36.63271 0.27604,-52.3266 -20.99082,-4.41449 -37.74186,-3.17523 -47.22645,4.79777 -8.07312,6.75844 -9.98934,17.53362 -6.63395,30.93126 -9.56322,-21.43027 -9.61414,-38.90426 2.06808,-48.694 10.79781,-9.01977 29.94567,-10.21133 53.86041,-4.84631 5.24837,-33.91401 17.12891,-55.71818 34.76524,-58.21969 5.44849,-0.79381 11.15068,0.31258 17.00206,3.09006 -1.73844,-0.13202 -3.45365,-0.0596 -5.12063,0.18056 -17.38262,2.47852 -28.91207,24.43771 -33.67894,58.31509 19.87862,5.96548 42.30862,15.75521 65.49259,28.85219 71.3681,-27.13171 132.77187,-33.51795 148.86719,-12.64045 3.68414,4.77477 4.76955,10.63208 3.48314,17.30706 -0.45471,-3.12839 -1.66608,-5.96549 -3.6082,-8.49085"
       style="fill:#ffffff;fill-opacity:1;fill-rule:nonzero;stroke:none"
       id="path36"
       inkscape:connector-curvature="0" /><path
       d="m 462.24348,765.22347 6.13011,10.00522 1.6902,5.99019 0.32785,0 1.36414,-5.99019 6.1301,-10.00522 10.18944,5.83262 -5.92731,10.16279 -4.26213,4.16068 0.35198,0.32536 5.95233,-1.64809 11.73313,0 0,11.64223 -11.73313,0 -5.95233,-1.64809 -0.35198,0.33558 4.26213,4.13768 5.92731,10.51115 -10.18944,5.84539 -6.1301,-10.49922 -1.36414,-5.85732 -0.32785,0 -1.6902,5.85732 -6.13011,10.49922 -10.39402,-5.84539 5.98003,-10.51115 4.41399,-4.13768 -0.35376,-0.33558 -5.77545,1.64809 -11.75636,0 0,-11.64223 11.75636,0 5.77545,1.64809 0.35376,-0.32536 -4.41399,-4.16068 -5.98003,-10.16279 10.39402,-5.83262 z"
       style="fill:#5d5e5e;fill-opacity:1;fill-rule:evenodd;stroke:none"
       id="path40"
       inkscape:connector-curvature="0" /><path
       d="m 471.9453,596.78046 0,-13.895 5.421,0 c 3.925,0 6.523,0.241 7.879,0.762 1.298,0.524 2.315,1.327 3.077,2.415 0.734,1.088 1.103,2.358 1.103,3.812 0,1.794 -0.509,3.263 -1.582,4.392 -1.046,1.185 -2.343,1.891 -3.98,2.203 -1.16,0.197 -3.53,0.311 -7.119,0.311 l -4.799,0 z m -9.914,-40.737 0,49.038 15.928,0 c 6.045,0 9.939,-0.212 11.775,-0.706 2.826,-0.748 5.17,-2.344 7.061,-4.8 1.92,-2.485 2.852,-5.677 2.852,-9.56 0,-3.021 -0.538,-5.562 -1.637,-7.61 -1.101,-2.047 -2.487,-3.657 -4.178,-4.829 -1.669,-1.172 -3.42,-1.963 -5.141,-2.329 -2.344,-0.467 -5.761,-0.721 -10.252,-0.721 l -6.494,0 0,-18.483 -9.914,0 z"
       style="fill:#858181;fill-opacity:1;fill-rule:nonzero;stroke:none"
       id="path44"
       inkscape:connector-curvature="0" /><path
       d="m 507.64061,556.04317 0,49.038 14.826,0 8.893,-33.449 8.811,33.449 14.856,0 0,-49.038 -9.18,0 0,38.618 -9.771,-38.618 -9.515,0 -9.688,38.618 0,-38.618 -9.232,0 z"
       style="fill:#858181;fill-opacity:1;fill-rule:nonzero;stroke:none"
       id="path48"
       inkscape:connector-curvature="0" /><path
       d="m 564.88081,556.04317 0,49.038 36.374,0 0,-8.301 -26.489,0 0,-10.859 24.625,0 0,-8.26 -24.625,0 0,-13.357 27.422,0 0,-8.261 -37.307,0 z"
       style="fill:#858181;fill-opacity:1;fill-rule:nonzero;stroke:none"
       id="path52"
       inkscape:connector-curvature="0" /><path
       d="m 580.41582,527.35972 5.12736,0 -5.00933,-15.09836 -4.07438,0 3.95635,15.09836 z m -20.54004,-28.05927 c -2.39979,-1.03308 -5.9256,-1.87218 -10.68527,-2.62466 -2.67832,-0.3988 -4.57964,-0.87068 -5.70396,-1.4012 -1.06827,-0.47279 -1.94293,-1.25324 -2.56029,-2.22677 -0.55451,-1.00241 -0.84578,-2.0797 -0.84578,-3.28692 0,-1.84421 0.6233,-3.37805 1.92085,-4.60061 1.34001,-1.25323 3.26171,-1.85864 5.78124,-1.85864 2.4915,0 4.73164,0.54586 6.67457,1.74045 1.9837,1.16391 3.43495,2.75729 4.35037,4.80632 0.68699,1.54917 1.06827,3.86346 1.06827,6.91489 l 0,2.53714 z m 0.50696,-15.46738 c -2.40149,-2.18346 -4.71211,-3.73083 -6.96754,-4.63128 -2.21892,-0.86977 -4.61956,-1.34075 -7.18749,-1.34075 -4.22638,0 -7.48045,1.1206 -9.76221,3.3176 -2.25543,2.16812 -3.37974,4.96872 -3.37974,8.39008 0,1.99037 0.45771,3.81835 1.26868,5.48391 0.92391,1.68181 1.99303,2.96391 3.39418,3.997 1.38077,0.98706 2.95516,1.75398 4.68324,2.25564 1.27633,0.33924 3.22011,0.69293 5.79398,1.06105 5.24625,0.61895 9.15844,1.43008 11.64994,2.3603 l 0.0144,1.7982 c 0,2.83128 -0.63095,4.82075 -1.85292,5.98647 -1.65846,1.53383 -4.14826,2.31519 -7.43799,2.31519 -3.05282,0 -5.31504,-0.5603 -6.78583,-1.69624 -1.43681,-1.15038 -2.51952,-3.12542 -3.23453,-6.06046 l -6.36888,0.93023 c 0.56131,2.9188 1.5124,5.24842 2.84477,7.03309 1.36718,1.73955 3.28803,3.14075 5.75236,4.09895 2.51783,0.95729 5.41864,1.44541 8.74234,1.44541 3.27615,0 5.92645,-0.41414 8.01459,-1.2397 2.03294,-0.78045 3.54619,-1.87218 4.49642,-3.09564 1.00629,-1.25324 1.65846,-2.80241 2.03974,-4.7179 0.2089,-1.19459 0.3609,-3.3185 0.3609,-6.36993 l 0,-9.23008 c 0,-6.45925 0.1104,-10.49956 0.40931,-12.1958 0.23522,-1.76752 0.8322,-3.37624 1.65845,-4.93895 l -6.84101,0 c -0.65302,1.44542 -1.09715,3.12542 -1.3052,5.04361 m -41.52844,35.81416 6.4954,0 0,-40.85777 -6.4954,0 0,40.85777 z m 0,15.57114 6.4954,0 0,-7.99218 -6.4954,0 0,7.99218 z m -12.01849,-41.46228 6.39095,-0.88511 c -0.71501,-4.68813 -2.4915,-8.36031 -5.38467,-10.99941 -2.85919,-2.68331 -6.41218,-4.01053 -10.62242,-4.01053 -5.3023,0 -9.48538,1.82887 -12.65793,5.48572 -3.26086,3.68571 -4.82845,8.88993 -4.82845,15.7182 0,4.4373 0.67935,8.25565 2.07455,11.58768 1.38162,3.3185 3.43495,5.78166 6.25169,7.41835 2.83033,1.68 5.88484,2.50647 9.22297,2.50647 4.14741,0 7.58236,-1.09173 10.21992,-3.34737 2.6571,-2.27098 4.39283,-5.44151 5.10019,-9.55489 l -6.32811,-1.06106 c -0.60377,2.74196 -1.67289,4.80542 -3.18613,6.17685 -1.51155,1.38586 -3.40607,2.09414 -5.5579,2.09414 -3.30248,0 -5.97401,-1.28211 -7.98572,-3.73083 -2.0754,-2.50647 -3.08169,-6.50166 -3.08169,-11.86919 0,-5.51459 0.9443,-9.4809 2.96365,-11.98737 1.95652,-2.50647 4.51766,-3.73083 7.73776,-3.73083 2.57302,0 4.71042,0.79579 6.39604,2.50647 1.70771,1.63669 2.80316,4.23248 3.2753,7.68271 m -66.34836,-14.96663 0,40.85777 5.8704,0 0,-5.80872 c 2.80231,4.46797 6.92509,6.73895 12.21125,6.73895 2.3463,0 4.4769,-0.44211 6.41898,-1.31188 1.94293,-0.90045 3.39333,-2.03549 4.35715,-3.51068 0.97911,-1.44541 1.6729,-3.14075 1.99983,-5.10226 0.27004,-1.29654 0.40166,-3.53775 0.40166,-6.73715 l 0,-25.12603 -6.50813,0 0,24.84543 c 0,2.84662 -0.2641,4.95429 -0.77021,6.36993 -0.56301,1.34075 -1.42238,2.47669 -2.72673,3.33294 -1.25679,0.81022 -2.78277,1.20902 -4.56606,1.20902 -2.72757,0 -5.15624,-0.94376 -7.16795,-2.78707 -1.99133,-1.87218 -2.98403,-5.38286 -2.98403,-10.68993 l 0,-22.28032 -6.53616,0 z m -36.33226,24.34378 21.48263,0 c -0.26324,3.46556 -1.07421,6.01534 -2.42781,7.75669 -2.11702,2.68331 -4.80128,3.9952 -8.09102,3.9952 -2.97723,0 -5.52988,-1.08993 -7.55603,-3.18407 -2.04738,-2.13834 -3.15726,-4.95429 -3.40777,-8.56782 m 10.74217,28.14949 -4.13552,-6.57745 -7.41082,0 7.82691,10.77926 6.93189,0 8.153,-10.77926 -7.39638,0 -3.96908,6.57745 z m 10.68442,-39.34018 6.75864,-0.88511 c -1.09544,-4.17294 -3.05196,-7.41655 -5.94513,-9.73083 -2.87363,-2.3161 -6.50134,-3.46557 -10.99182,-3.46557 -5.62074,0 -10.09594,1.85775 -13.39841,5.52903 -3.2753,3.67128 -4.90658,8.81775 -4.90658,15.49625 0,6.87158 1.63128,12.20933 4.96263,15.99881 3.35087,3.78947 7.69444,5.69233 12.96787,5.69233 5.15624,0 9.35375,-1.85865 12.6282,-5.58858 3.26086,-3.70195 4.87856,-8.93504 4.87856,-15.68843 l -0.0212,-1.84421 -28.68456,0 c 0.23608,-4.49594 1.40116,-7.96151 3.55299,-10.32091 2.15013,-2.3585 4.82845,-3.56842 8.03412,-3.56842 2.41422,0 4.47689,0.66316 6.12091,2.02015 1.69921,1.29744 3.0664,3.42136 4.04381,6.35549 m -42.9296,43.27582 6.47417,0 0,-56.42891 -6.47417,0 0,56.42891 z m -36.17947,-32.08513 21.44866,0 c -0.32524,3.46556 -1.08186,6.01534 -2.46348,7.75669 -2.08899,2.68331 -4.76052,3.9952 -8.07658,3.9952 -2.96365,0 -5.5095,-1.08993 -7.55603,-3.18407 -2.04823,-2.13834 -3.1717,-4.95429 -3.35257,-8.56782 m 21.41384,-11.19069 6.71619,-0.88511 c -1.04025,-4.17294 -3.05196,-7.41655 -5.9256,-9.73083 -2.8507,-2.3161 -6.52172,-3.46557 -10.99777,-3.46557 -5.59866,0 -10.0815,1.85775 -13.41199,5.52903 -3.2753,3.67128 -4.92017,8.81775 -4.92017,15.49625 0,6.87158 1.67289,12.20933 5.02377,15.99881 3.30247,3.78947 7.59849,5.69233 12.92032,5.69233 5.1902,0 9.35375,-1.85865 12.62905,-5.58858 3.23284,-3.70195 4.86327,-8.93504 4.86327,-15.68843 l -0.0628,-1.84421 -28.61492,0 c 0.22164,-4.49594 1.40879,-7.96151 3.57251,-10.32091 2.15863,-2.3585 4.83016,-3.56842 8.001,-3.56842 2.40149,0 4.47605,0.66316 6.16168,2.02015 1.65845,1.29744 2.99846,3.42136 4.0455,6.35549 m -38.33721,1.81354 6.37736,-0.88511 c -0.70142,-4.68813 -2.49065,-8.36031 -5.32267,-10.99941 -2.92034,-2.68331 -6.44615,-4.01053 -10.63008,-4.01053 -5.27342,0 -9.51254,1.82887 -12.69868,5.48572 -3.18443,3.68571 -4.81402,8.88993 -4.81402,15.7182 0,4.4373 0.67935,8.25565 2.07456,11.58768 1.39436,3.3185 3.49693,5.78166 6.2865,7.41835 2.80994,1.68 5.89757,2.50647 9.17287,2.50647 4.17713,0 7.57047,-1.09173 10.20633,-3.34737 2.68597,-2.27098 4.38518,-5.44151 5.14181,-9.55489 l -6.32812,-1.06106 c -0.60292,2.74196 -1.65845,4.80542 -3.22604,6.17685 -1.52598,1.38586 -3.35258,2.09414 -5.5579,2.09414 -3.2753,0 -5.9324,-1.28211 -8.02139,-3.73083 -2.01256,-2.50647 -3.05281,-6.50166 -3.05281,-11.86919 0,-5.51459 1.01308,-9.4809 2.98318,-11.98737 1.97095,-2.50647 4.57964,-3.73083 7.73011,-3.73083 2.56623,0 4.70363,0.79579 6.41728,2.50647 1.74932,1.63669 2.78956,4.23248 3.26171,7.68271 m -66.50716,-14.96663 14.01577,21.24723 -12.9475,19.61054 8.11734,0 5.89843,-9.58286 c 1.12432,-1.82887 2.01256,-3.3176 2.66473,-4.58617 l 2.97045,4.52662 6.4869,9.64241 7.76493,0 -13.27443,-19.27039 14.28071,-21.58738 -8.001,0 -7.88296,12.69565 -2.10173,3.43669 -10.08235,-16.13234 -7.90929,0 z m -31.98108,24.34378 21.45376,0 c -0.26325,3.46556 -1.12432,6.01534 -2.45584,7.75669 -2.07455,2.68331 -4.7741,3.9952 -8.06299,3.9952 -2.99167,0 -5.51629,-1.08993 -7.52886,-3.18407 -2.07455,-2.13834 -3.19887,-4.95429 -3.40607,-8.56782 m 21.39856,-11.19069 6.72383,-0.88511 c -1.0343,-4.17294 -2.99082,-7.41655 -5.89842,-9.73083 -2.87194,-2.3161 -6.54975,-3.46557 -11.02494,-3.46557 -5.62754,0 -10.07556,1.85775 -13.33642,5.52903 -3.34493,3.67128 -4.94819,8.81775 -4.94819,15.49625 0,6.87158 1.65845,12.20933 4.98215,15.99881 3.31691,3.78947 7.6469,5.69233 12.97552,5.69233 5.10019,0 9.31214,-1.85865 12.60103,-5.58858 3.28973,-3.70195 4.85732,-8.93504 4.85732,-15.68843 l -0.0272,-1.84421 -28.69304,0 c 0.24286,-4.49594 1.45804,-7.96151 3.61582,-10.32091 2.13654,-2.3585 4.83524,-3.56842 8.03412,-3.56842 2.40149,0 4.41405,0.66316 6.10647,2.02015 1.68648,1.29744 3.02564,3.42136 4.03192,6.35549"
       style="fill:#736464;fill-opacity:1;fill-rule:evenodd;stroke:none"
       id="path56"
       inkscape:connector-curvature="0" /><path
       d="m 606.58764,478.43657 0,35.63732 -12.16285,0 0,4.77745 c 1.61005,0 3.13603,0.14797 4.63569,0.39879 1.51154,0.26617 2.84476,0.73715 4.05824,1.44542 1.21518,0.67759 2.25543,1.65113 3.05367,2.85925 0.86022,1.19458 1.43596,2.77263 1.74846,4.63128 l 4.30112,0 0,-49.74951 -5.63433,0 z"
       style="fill:#736464;fill-opacity:1;fill-rule:nonzero;stroke:none"
       id="path60"
       inkscape:connector-curvature="0" /><path
       d="m 621.76313,517.61348 c 0.625,2.13834 1.58882,3.99519 2.9076,5.58767 1.28312,1.53474 2.93563,2.77263 4.83016,3.65775 1.95566,0.86887 4.14825,1.32631 6.61258,1.32631 2.03889,0 3.90624,-0.30947 5.7167,-0.94285 1.80452,-0.63429 3.31691,-1.53474 4.65692,-2.74377 1.33152,-1.19458 2.39979,-2.65263 3.17,-4.45263 0.77021,-1.7982 1.12432,-3.81835 1.12432,-6.20752 0,-2.16813 -0.29891,-4.11429 -0.95108,-5.76632 -0.6785,-1.70888 -1.49202,-3.22737 -2.54586,-4.56993 -1.04024,-1.32722 -2.25543,-2.50647 -3.6294,-3.5982 -1.37993,-1.06105 -2.77598,-2.10767 -4.22554,-3.09474 -1.4504,-0.93022 -2.9076,-1.85865 -4.37074,-2.78797 -1.43682,-0.88421 -2.77513,-1.87218 -3.96908,-2.90436 -1.23472,-1.04662 -2.26987,-2.15369 -3.12924,-3.3176 -0.83305,-1.19459 -1.43682,-2.56511 -1.69412,-4.12963 l 24.04291,0 0,-5.23308 -30.60625,0 c 0.25646,2.93323 0.75578,5.47038 1.51155,7.50406 0.78464,2.10948 1.76375,3.93745 2.95006,5.48572 1.17272,1.53384 2.55349,2.87459 4.05909,4.0403 1.45635,1.20903 3.03923,2.27098 4.64249,3.33204 1.99812,1.28391 3.71857,2.50646 5.24455,3.58286 1.46399,1.1206 2.74201,2.2412 3.71942,3.34737 1.00628,1.10526 1.73488,2.35849 2.26902,3.64241 0.48658,1.32721 0.75662,2.84571 0.75662,4.56992 0,1.3579 -0.25645,2.58046 -0.74218,3.70106 -0.47894,1.07639 -1.14555,2.00481 -1.92935,2.86105 -0.82625,0.76692 -1.80366,1.35609 -2.88637,1.7982 -1.13111,0.41414 -2.26987,0.63429 -3.48335,0.63429 -1.64402,0 -3.05366,-0.35369 -4.22638,-1.08993 -1.17188,-0.73895 -2.11617,-1.68271 -2.8575,-2.84662 -0.74304,-1.17925 -1.31878,-2.49293 -1.60326,-3.96632 -0.35326,-1.47519 -0.4713,-2.96391 -0.45856,-4.46797 l -5.62754,0 c -0.13756,2.52181 0.1121,4.86677 0.72181,7.04843"
       style="fill:#736464;fill-opacity:1;fill-rule:nonzero;stroke:none"
       id="path64"
       inkscape:connector-curvature="0" /></g></svg>