<?xml version="1.0" encoding="UTF-8" standalone="no"?>
<!-- Created with Inkscape (http://www.inkscape.org/) -->

<svg
   xmlns:dc="http://purl.org/dc/elements/1.1/"
   xmlns:cc="http://creativecommons.org/ns#"
   xmlns:rdf="http://www.w3.org/1999/02/22-rdf-syntax-ns#"
   xmlns:svg="http://www.w3.org/2000/svg"
   xmlns="http://www.w3.org/2000/svg"
   xmlns:sodipodi="http://sodipodi.sourceforge.net/DTD/sodipodi-0.dtd"
   xmlns:inkscape="http://www.inkscape.org/namespaces/inkscape"
   id="svg2"
   version="1.1"
   inkscape:version="0.91 r13725"
   xml:space="preserve"
   width="1073.6226"
   height="765.35999"
   viewBox="0 0 1073.6226 765.35999"
   sodipodi:docname="qren_bw_1.svg"><metadata
     id="metadata8"><rdf:RDF><cc:Work
         rdf:about=""><dc:format>image/svg+xml</dc:format><dc:type
           rdf:resource="http://purl.org/dc/dcmitype/StillImage" /><dc:title /></cc:Work></rdf:RDF></metadata><defs
     id="defs6"><linearGradient
       x1="0"
       y1="0"
       x2="1"
       y2="0"
       gradientUnits="userSpaceOnUse"
       gradientTransform="matrix(179.18913,-179.18913,-179.18913,-179.18913,183.23579,386.11975)"
       spreadMethod="pad"
       id="linearGradient24"><stop
         style="stop-opacity:1;stop-color:#1b833f"
         offset="0"
         id="stop26" /><stop
         style="stop-opacity:1;stop-color:#bccf1e"
         offset="0.41503764"
         id="stop28" /><stop
         style="stop-opacity:1;stop-color:#bccf1e"
         offset="1"
         id="stop30" /></linearGradient><clipPath
       clipPathUnits="userSpaceOnUse"
       id="clipPath38"><path
         d="m 0,612.288 858.898,0 L 858.898,0 0,0 0,612.288 Z"
         id="path40"
         inkscape:connector-curvature="0" /></clipPath></defs><sodipodi:namedview
     pagecolor="#ffffff"
     bordercolor="#666666"
     borderopacity="1"
     objecttolerance="10"
     gridtolerance="10"
     guidetolerance="10"
     inkscape:pageopacity="0"
     inkscape:pageshadow="2"
     inkscape:window-width="1280"
     inkscape:window-height="971"
     id="namedview4"
     showgrid="false"
     inkscape:zoom="0.61670326"
     inkscape:cx="244.74512"
     inkscape:cy="358.07211"
     inkscape:window-x="1912"
     inkscape:window-y="-8"
     inkscape:window-maximized="1"
     inkscape:current-layer="g10" /><g
     id="g10"
     inkscape:groupmode="layer"
     inkscape:label="QREN"
     transform="matrix(1.25,0,0,-1.25,0,765.36)"><g
       id="g12"
       style="fill:#a1a1a1;fill-opacity:1"><g
         id="g14"
         style="fill:#a1a1a1;fill-opacity:1"><g
           id="g20"
           style="fill:#a1a1a1;fill-opacity:1"><g
             id="g22"
             style="fill:#a1a1a1;fill-opacity:1"><path
               d="m 172.142,355.169 c 0,-26.472 21.536,-48.012 48.011,-48.012 l 0,0 c 11.124,0 21.348,3.836 29.494,10.21 l 0,0 16.087,-16.086 -84.779,0 c -3.247,0 -5.875,-2.629 -5.875,-5.878 l 0,0 0,-81.335 c 0,-3.246 2.628,-5.875 5.875,-5.875 l 0,0 98.961,0 c 3.243,0 5.872,2.629 5.872,5.875 l 0,0 0,67.155 c 15.419,-15.416 71.312,-71.31 71.312,-71.31 l 0,0 c 1.68,-1.679 4.205,-2.181 6.404,-1.272 l 0,0 c 2.194,0.91 3.622,3.049 3.622,5.427 l 0,0 0,98.965 c 0,1.557 -0.618,3.049 -1.72,4.15 l 0,0 c 0,0 -19.252,19.257 -30.64,30.639 l 0,0 6.154,0 c 14.45,0 26.206,11.76 26.206,26.213 l 0,0 c 0,14.448 -11.756,26.206 -26.206,26.206 l 0,0 -61.004,0 c -3.247,0 -5.876,-2.626 -5.876,-5.874 l 0,0 0,-84.779 -16.081,16.081 c 6.367,8.151 10.205,18.377 10.205,29.5 l 0,0 c 0,26.476 -21.534,48.011 -48.011,48.011 l 0,0 c -26.475,0 -48.011,-21.535 -48.011,-48.011 m 11.746,0 c 0,19.995 16.269,36.259 36.265,36.259 l 0,0 c 19.996,0 36.265,-16.264 36.265,-36.259 l 0,0 c 0,-7.882 -2.552,-15.16 -6.843,-21.115 l 0,0 -23.797,23.797 c -2.296,2.297 -6.014,2.297 -8.312,0 l 0,0 c -2.293,-2.292 -2.293,-6.01 0,-8.303 l 0,0 23.802,-23.803 c -5.956,-4.285 -13.232,-6.835 -21.115,-6.835 l 0,0 c -19.996,0 -36.265,16.264 -36.265,36.259 m 101.9,33.322 55.132,0 c 7.97,0 14.46,-6.485 14.46,-14.456 l 0,0 c 0,-7.971 -6.49,-14.461 -14.46,-14.461 l 0,0 -55.132,0 0,28.917 z m 0,-90.649 0,49.98 32.365,0 c 3.016,-3.017 34.209,-34.206 37.227,-37.228 l 0,0 0,-82.346 c -15.042,15.047 -66.709,66.708 -69.592,69.594 m -98.962,-8.315 87.214,0 0,-69.583 -87.214,0 0,28.917 60.783,0 c 3.247,0 5.876,2.629 5.876,5.876 l 0,0 c 0,3.246 -2.629,5.875 -5.876,5.875 l 0,0 -60.783,0 0,28.915 z"
               style="fill:#a1a1a1;stroke:none;fill-opacity:1"
               id="path32"
               inkscape:connector-curvature="0" /></g></g></g></g><g
       id="g34"
       style="fill:#a1a1a1;fill-opacity:1"><g
         id="g36"
         clip-path="url(#clipPath38)"
         style="fill:#a1a1a1;fill-opacity:1"><g
           id="g42"
           transform="translate(398.515,395.7973)"
           style="fill:#a1a1a1;fill-opacity:1"><path
             d="m 0,0 c -8.632,0 -10.179,-4.971 -10.179,-14.858 0,-9.887 1.547,-14.863 10.179,-14.863 8.632,0 10.177,4.976 10.177,14.863 C 10.177,-4.971 8.632,0 0,0 m 2.781,-31.247 c 13.606,-3.143 13.567,-3.348 13.567,-3.348 l 0,-1.508 c 0,-0.169 -0.127,-0.26 -0.284,-0.224 l -20.159,5.339 c -7.037,1.852 -7.924,7.933 -7.924,16.13 0,9.803 1.52,16.565 12.019,16.565 10.539,0 12.008,-6.762 12.008,-16.565 0,-8.879 -1.198,-15.255 -9.227,-16.389"
             style="fill:#a1a1a1;fill-opacity:1;fill-rule:nonzero;stroke:none"
             id="path44"
             inkscape:connector-curvature="0" /></g><g
           id="g46"
           transform="translate(437.1519,375.3055)"
           style="fill:#a1a1a1;fill-opacity:1"><path
             d="m 0,0 0,21.753 c 0,0.126 0.103,0.229 0.232,0.229 l 1.328,0 c 0.129,0 0.232,-0.103 0.232,-0.229 l 0,-21.801 c 0,-9.073 -5.23,-10.889 -11.287,-10.889 -6.041,0 -11.274,1.816 -11.274,10.889 l 0,21.801 c 0,0.126 0.105,0.229 0.232,0.229 l 1.328,0 c 0.129,0 0.232,-0.103 0.232,-0.229 l 0,-21.753 c 0,-7.287 3.311,-9.229 9.482,-9.229 C -3.311,-9.229 0,-7.287 0,0"
             style="fill:#a1a1a1;fill-opacity:1;fill-rule:nonzero;stroke:none"
             id="path48"
             inkscape:connector-curvature="0" /></g><g
           id="g50"
           transform="translate(461.3599,375.5767)"
           style="fill:#a1a1a1;fill-opacity:1"><path
             d="M 0,0 -6.349,18.586 -12.728,0 0,0 Z m 0.543,-1.659 -13.826,0 -3.131,-9.175 -1.803,-0.157 c -0.179,0 -0.269,0.133 -0.218,0.302 l 11.401,32.466 1.161,0.151 11.621,-32.617 c 0.052,-0.169 -0.039,-0.302 -0.22,-0.302 l -1.598,0 -3.387,9.332 z"
             style="fill:#a1a1a1;fill-opacity:1;fill-rule:nonzero;stroke:none"
             id="path52"
             inkscape:connector-curvature="0" /></g><g
           id="g54"
           transform="translate(481.7035,366.287)"
           style="fill:#a1a1a1;fill-opacity:1"><path
             d="M 0,0 C 8.75,0 10.952,4.711 10.952,14.653 10.952,24.588 8.75,29.299 0,29.299 l -7.51,0 L -7.51,0 0,0 Z m -9.353,30.771 c 0,0.127 0.103,0.229 0.233,0.229 l 9.341,0 C 10.605,31 12.834,24.787 12.834,14.653 12.834,4.519 10.605,-1.701 0.221,-1.701 l -9.341,0 c -0.13,0 -0.233,0.103 -0.233,0.23 l 0,32.242 z"
             style="fill:#a1a1a1;fill-opacity:1;fill-rule:nonzero;stroke:none"
             id="path56"
             inkscape:connector-curvature="0" /></g><g
           id="g58"
           transform="translate(519.3119,388.3774)"
           style="fill:#a1a1a1;fill-opacity:1"><path
             d="m 0,0 c 0,4.054 -0.929,7.209 -7.55,7.209 l -9.187,0 0,-14.418 9.187,0 C -0.929,-7.209 0,-4.053 0,0 m -18.347,-23.792 c -0.115,0 -0.232,0.104 -0.232,0.23 l 0,32.243 c 0,0.126 0.117,0.229 0.232,0.229 l 10.152,0 C -0.027,8.91 1.843,5.622 1.843,0 c 0,-4.711 -1.327,-7.824 -6.714,-8.692 l 7.923,-14.762 c 0.091,-0.181 0,-0.338 -0.205,-0.338 l -1.676,0 -7.909,14.912 -1.457,-0.035 -8.542,0 0,-14.647 c 0,-0.126 -0.102,-0.23 -0.232,-0.23 l -1.378,0 z"
             style="fill:#a1a1a1;fill-opacity:1;fill-rule:nonzero;stroke:none"
             id="path60"
             inkscape:connector-curvature="0" /></g><g
           id="g62"
           transform="translate(538.4707,395.7973)"
           style="fill:#a1a1a1;fill-opacity:1"><path
             d="m 0,0 c -8.647,0 -10.192,-4.971 -10.192,-14.858 0,-9.887 1.545,-14.863 10.192,-14.863 8.629,0 10.176,4.976 10.176,14.863 C 10.176,-4.971 8.629,0 0,0 m 0,-31.428 c -10.502,0 -12.022,6.762 -12.022,16.57 0,9.803 1.52,16.565 12.022,16.565 10.538,0 12.007,-6.762 12.007,-16.565 0,-9.808 -1.469,-16.57 -12.007,-16.57"
             style="fill:#a1a1a1;fill-opacity:1;fill-rule:nonzero;stroke:none"
             id="path64"
             inkscape:connector-curvature="0" /></g><g
           id="g66"
           transform="translate(396.4914,316.1224)"
           style="fill:#a1a1a1;fill-opacity:1"><path
             d="M 0,0 C 8.75,0 10.952,4.711 10.952,14.646 10.952,24.588 8.75,29.293 0,29.293 l -7.51,0 L -7.51,0 0,0 Z m -9.353,30.777 c 0,0.115 0.118,0.229 0.232,0.229 l 9.342,0 c 10.396,0 12.612,-6.219 12.612,-16.36 0,-10.134 -2.216,-16.347 -12.612,-16.347 l -9.342,0 c -0.114,0 -0.232,0.103 -0.232,0.223 l 0,32.255 z"
             style="fill:#a1a1a1;fill-opacity:1;fill-rule:nonzero;stroke:none"
             id="path68"
             inkscape:connector-curvature="0" /></g><g
           id="g70"
           transform="translate(417.3631,330.5341)"
           style="fill:#a1a1a1;fill-opacity:1"><path
             d="m 0,0 0,-14.412 16.284,0 c 0.118,0 0.221,-0.108 0.221,-0.234 l 0,-1.243 c 0,-0.121 -0.103,-0.223 -0.221,-0.223 l -17.894,0 c -0.115,0 -0.233,0.102 -0.233,0.223 l 0,32.255 c 0,0.114 0.118,0.223 0.233,0.223 l 17.894,0 c 0.118,0 0.221,-0.109 0.221,-0.223 l 0,-1.249 c 0,-0.127 -0.103,-0.236 -0.221,-0.236 l -16.284,0 0,-13.21 14.701,0 c 0.114,0 0.22,-0.109 0.22,-0.224 l 0,-1.212 c 0,-0.115 -0.106,-0.223 -0.22,-0.223 L 0,0 Z"
             style="fill:#a1a1a1;fill-opacity:1;fill-rule:nonzero;stroke:none"
             id="path72"
             inkscape:connector-curvature="0" /></g><g
           id="g74"
           transform="translate(467.2473,338.2128)"
           style="fill:#a1a1a1;fill-opacity:1"><path
             d="m 0,0 c 0,4.048 -0.926,7.202 -7.55,7.202 l -9.184,0 0,-14.417 9.184,0 C -0.926,-7.215 0,-4.053 0,0 m -18.344,-23.791 c -0.118,0 -0.232,0.103 -0.232,0.223 l 0,32.255 c 0,0.114 0.114,0.223 0.232,0.223 l 10.152,0 c 8.18,0 10.035,-3.288 10.035,-8.91 0,-4.711 -1.327,-7.83 -6.711,-8.692 l 7.923,-14.767 c 0.103,-0.181 0.013,-0.332 -0.193,-0.332 l -1.677,0 -7.923,14.911 -1.454,-0.048 -8.542,0 0,-14.64 c 0,-0.12 -0.102,-0.223 -0.232,-0.223 l -1.378,0 z"
             style="fill:#a1a1a1;fill-opacity:1;fill-rule:nonzero;stroke:none"
             id="path76"
             inkscape:connector-curvature="0" /></g><g
           id="g78"
           transform="translate(477.3122,330.5341)"
           style="fill:#a1a1a1;fill-opacity:1"><path
             d="m 0,0 0,-14.412 16.272,0 c 0.115,0 0.229,-0.108 0.229,-0.234 l 0,-1.243 c 0,-0.121 -0.114,-0.223 -0.229,-0.223 l -17.883,0 c -0.129,0 -0.232,0.102 -0.232,0.223 l 0,32.255 c 0,0.114 0.103,0.223 0.232,0.223 l 17.883,0 c 0.115,0 0.229,-0.109 0.229,-0.223 l 0,-1.249 c 0,-0.127 -0.114,-0.236 -0.229,-0.236 l -16.272,0 0,-13.21 14.685,0 c 0.118,0 0.233,-0.109 0.233,-0.224 l 0,-1.212 c 0,-0.115 -0.115,-0.223 -0.233,-0.223 L 0,0 Z"
             style="fill:#a1a1a1;fill-opacity:1;fill-rule:nonzero;stroke:none"
             id="path80"
             inkscape:connector-curvature="0" /></g><g
           id="g82"
           transform="translate(501.5436,330.5341)"
           style="fill:#a1a1a1;fill-opacity:1"><path
             d="m 0,0 0,-15.889 c 0,-0.121 -0.114,-0.223 -0.232,-0.223 l -1.378,0 c -0.115,0 -0.233,0.102 -0.233,0.223 l 0,32.255 c 0,0.114 0.118,0.223 0.233,0.223 l 17.457,0 c 0.13,0 0.233,-0.109 0.233,-0.223 l 0,-1.249 c 0,-0.127 -0.103,-0.236 -0.233,-0.236 l -15.847,0 0,-13.21 14.263,0 c 0.115,0 0.233,-0.109 0.233,-0.224 l 0,-1.212 c 0,-0.115 -0.118,-0.223 -0.233,-0.223 L 0,0 Z"
             style="fill:#a1a1a1;fill-opacity:1;fill-rule:nonzero;stroke:none"
             id="path84"
             inkscape:connector-curvature="0" /></g><g
           id="g86"
           transform="translate(525.1332,330.5341)"
           style="fill:#a1a1a1;fill-opacity:1"><path
             d="m 0,0 0,-14.412 16.272,0 c 0.13,0 0.233,-0.108 0.233,-0.234 l 0,-1.243 c 0,-0.121 -0.103,-0.223 -0.233,-0.223 l -17.883,0 c -0.114,0 -0.229,0.102 -0.229,0.223 l 0,32.255 c 0,0.114 0.115,0.223 0.229,0.223 l 17.883,0 c 0.13,0 0.233,-0.109 0.233,-0.223 l 0,-1.249 c 0,-0.127 -0.103,-0.236 -0.233,-0.236 l -16.272,0 0,-13.21 14.688,0 c 0.13,0 0.233,-0.109 0.233,-0.224 l 0,-1.212 c 0,-0.115 -0.103,-0.223 -0.233,-0.223 L 0,0 Z"
             style="fill:#a1a1a1;fill-opacity:1;fill-rule:nonzero;stroke:none"
             id="path88"
             inkscape:connector-curvature="0" /></g><g
           id="g90"
           transform="translate(566.1014,338.2128)"
           style="fill:#a1a1a1;fill-opacity:1"><path
             d="m 0,0 c 0,4.048 -0.929,7.202 -7.55,7.202 l -9.184,0 0,-14.417 9.184,0 C -0.929,-7.215 0,-4.053 0,0 m -18.344,-23.791 c -0.115,0 -0.232,0.103 -0.232,0.223 l 0,32.255 c 0,0.114 0.117,0.223 0.232,0.223 l 10.15,0 C -0.027,8.91 1.843,5.622 1.843,0 c 0,-4.711 -1.327,-7.83 -6.714,-8.692 l 7.939,-14.767 c 0.087,-0.181 0,-0.332 -0.209,-0.332 l -1.674,0 -7.923,14.911 -1.456,-0.048 -8.54,0 0,-14.64 c 0,-0.12 -0.102,-0.223 -0.232,-0.223 l -1.378,0 z"
             style="fill:#a1a1a1;fill-opacity:1;fill-rule:nonzero;stroke:none"
             id="path92"
             inkscape:connector-curvature="0" /></g><g
           id="g94"
           transform="translate(589.4705,349.9276)"
           style="fill:#a1a1a1;fill-opacity:1"><path
             d="M 0,0 -5.978,6.057 -11.956,0 -13.075,-0.042 c -0.232,0 -0.322,0.193 -0.169,0.38 l 6.328,7.57 1.894,0 6.313,-7.57 C 1.445,0.151 1.355,-0.042 1.122,-0.042 L 0,0 Z m -13.307,-19.394 0,-14.411 16.272,0 c 0.13,0 0.232,-0.108 0.232,-0.235 l 0,-1.243 c 0,-0.12 -0.102,-0.223 -0.232,-0.223 l -17.883,0 c -0.129,0 -0.232,0.103 -0.232,0.223 l 0,32.255 c 0,0.114 0.103,0.229 0.232,0.229 l 17.883,0 c 0.13,0 0.232,-0.115 0.232,-0.229 l 0,-1.249 c 0,-0.127 -0.102,-0.235 -0.232,-0.235 l -16.272,0 0,-13.211 14.686,0 c 0.129,0 0.232,-0.108 0.232,-0.223 l 0,-1.213 c 0,-0.114 -0.103,-0.223 -0.232,-0.223 l -14.686,-0.012 z"
             style="fill:#a1a1a1;fill-opacity:1;fill-rule:nonzero;stroke:none"
             id="path96"
             inkscape:connector-curvature="0" /></g><g
           id="g98"
           transform="translate(600.3588,343.123)"
           style="fill:#a1a1a1;fill-opacity:1"><path
             d="m 0,0 0.075,-28.478 c 0,-0.121 -0.102,-0.223 -0.229,-0.223 l -1.417,0 c -0.118,0 -0.233,0.102 -0.233,0.223 l 0,32.255 c 0,0.114 0.115,0.229 0.233,0.229 L -0.618,3.958 18.534,-24.708 18.459,3.777 c 0,0.114 0.102,0.229 0.22,0.229 l 1.414,0 c 0.13,0 0.233,-0.115 0.233,-0.229 l 0,-32.255 c 0,-0.121 -0.103,-0.223 -0.233,-0.223 L 19.14,-28.653 0,0 Z"
             style="fill:#a1a1a1;fill-opacity:1;fill-rule:nonzero;stroke:none"
             id="path100"
             inkscape:connector-curvature="0" /></g><g
           id="g102"
           transform="translate(639.496,347.3401)"
           style="fill:#a1a1a1;fill-opacity:1"><path
             d="m 0,0 c 3.761,0 6.235,-0.555 7.987,-1.267 l 0.154,-0.205 0,-1.339 c 0,-0.181 -0.142,-0.272 -0.308,-0.211 -2.642,0.971 -4.729,1.321 -7.833,1.321 -7.86,0 -10.873,-4.857 -10.873,-14.87 0,-10.019 3.013,-14.863 10.873,-14.863 3.104,0 5.191,0.344 7.833,1.315 0.166,0.066 0.308,-0.031 0.308,-0.212 l 0,-1.326 -0.154,-0.218 c -1.752,-0.7 -4.226,-1.267 -7.987,-1.267 -9.703,0 -12.704,6.123 -12.704,16.571 C -12.704,-6.123 -9.703,0 0,0"
             style="fill:#a1a1a1;fill-opacity:1;fill-rule:nonzero;stroke:none"
             id="path104"
             inkscape:connector-curvature="0" /></g><g
           id="g106"
           transform="translate(655.5997,347.1226)"
           style="fill:#a1a1a1;fill-opacity:1"><path
             d="m 0,0 c 0.117,0 0.232,-0.109 0.232,-0.223 l 0,-32.255 c 0,-0.12 -0.115,-0.229 -0.232,-0.229 l -1.379,0 c -0.129,0 -0.232,0.109 -0.232,0.229 l 0,32.255 C -1.611,-0.109 -1.508,0 -1.379,0 L 0,0 Z"
             style="fill:#a1a1a1;fill-opacity:1;fill-rule:nonzero;stroke:none"
             id="path108"
             inkscape:connector-curvature="0" /></g><g
           id="g110"
           transform="translate(679.9763,325.4065)"
           style="fill:#a1a1a1;fill-opacity:1"><path
             d="M 0,0 -6.34,18.586 -12.729,0 0,0 Z m 0.555,-1.659 -13.826,0 -3.131,-9.175 -1.804,-0.157 c -0.181,0 -0.271,0.133 -0.216,0.302 l 11.388,32.466 1.171,0.157 11.606,-32.623 c 0.063,-0.169 -0.04,-0.302 -0.221,-0.302 l -1.583,0 -3.384,9.332 z"
             style="fill:#a1a1a1;fill-opacity:1;fill-rule:nonzero;stroke:none"
             id="path112"
             inkscape:connector-curvature="0" /></g><g
           id="g114"
           transform="translate(388.9813,280.3695)"
           style="fill:#a1a1a1;fill-opacity:1"><path
             d="m 0,0 0,-14.417 16.284,0 c 0.118,0 0.232,-0.103 0.232,-0.229 l 0,-1.243 c 0,-0.127 -0.114,-0.229 -0.232,-0.229 l -17.895,0 c -0.114,0 -0.232,0.102 -0.232,0.229 l 0,32.248 c 0,0.115 0.118,0.23 0.232,0.23 l 17.895,0 c 0.118,0 0.232,-0.115 0.232,-0.23 l 0,-1.249 c 0,-0.12 -0.114,-0.229 -0.232,-0.229 L 0,14.881 0,1.659 l 14.701,0 c 0.114,0 0.217,-0.103 0.217,-0.223 l 0,-1.207 c 0,-0.115 -0.103,-0.223 -0.217,-0.223 L 0,0 Z"
             style="fill:#a1a1a1;fill-opacity:1;fill-rule:nonzero;stroke:none"
             id="path116"
             inkscape:connector-curvature="0" /></g><g
           id="g118"
           transform="translate(429.6542,295.9085)"
           style="fill:#a1a1a1;fill-opacity:1"><path
             d="m 0,0 0.141,-0.217 0,-1.333 c 0,-0.181 -0.129,-0.278 -0.307,-0.212 -2.642,0.978 -4.718,1.322 -7.833,1.322 -7.242,0 -8.931,-3.167 -8.931,-6.908 0,-5.043 1.985,-5.742 8.916,-6.532 6.675,-0.718 9.998,-1.484 9.998,-8.651 0,-4.373 -2.24,-9.344 -11.877,-9.344 -2.772,0 -6.584,0.652 -8.684,1.478 l -0.157,0.212 0,1.291 c 0,0.186 0.142,0.277 0.311,0.21 1.97,-0.718 4.56,-1.477 8.566,-1.477 7.73,0 10.011,3.311 10.011,7.63 0,5.285 -1.261,6.183 -8.657,7.04 -7.226,0.827 -10.231,1.84 -10.231,8.186 0,4.162 2.087,8.566 10.735,8.566 C -4.238,1.261 -1.752,0.705 0,0"
             style="fill:#a1a1a1;fill-opacity:1;fill-rule:nonzero;stroke:none"
             id="path120"
             inkscape:connector-curvature="0" /></g><g
           id="g122"
           transform="translate(446.8277,264.4802)"
           style="fill:#a1a1a1;fill-opacity:1"><path
             d="m 0,0 c 0,-0.127 -0.103,-0.229 -0.232,-0.229 l -1.367,0 c -0.126,0 -0.229,0.102 -0.229,0.229 l 0,30.813 -9.147,0 c -0.13,0 -0.233,0.109 -0.233,0.223 l 0,1.213 c 0,0.115 0.103,0.229 0.233,0.229 l 20.123,0 c 0.115,0 0.232,-0.114 0.232,-0.229 l 0,-1.213 c 0,-0.114 -0.117,-0.223 -0.232,-0.223 L 0,30.813 0,0 Z"
             style="fill:#a1a1a1;fill-opacity:1;fill-rule:nonzero;stroke:none"
             id="path124"
             inkscape:connector-curvature="0" /></g><g
           id="g126"
           transform="translate(480.1203,288.0482)"
           style="fill:#a1a1a1;fill-opacity:1"><path
             d="m 0,0 c 0,4.042 -0.917,7.202 -7.55,7.202 l -9.187,0 0,-14.416 9.187,0 C -0.917,-7.214 0,-4.047 0,0 m -18.335,-23.797 c -0.127,0 -0.233,0.102 -0.233,0.229 l 0,32.249 c 0,0.115 0.106,0.229 0.233,0.229 l 10.14,0 C -0.012,8.91 1.843,5.616 1.843,0 c 0,-4.717 -1.327,-7.83 -6.714,-8.699 l 7.923,-14.766 c 0.103,-0.175 0.012,-0.332 -0.193,-0.332 l -1.674,0 -7.923,14.917 -1.445,-0.042 -8.554,0 0,-14.646 c 0,-0.127 -0.102,-0.229 -0.22,-0.229 l -1.378,0 z"
             style="fill:#a1a1a1;fill-opacity:1;fill-rule:nonzero;stroke:none"
             id="path128"
             inkscape:connector-curvature="0" /></g><g
           id="g130"
           transform="translate(505.8088,275.2419)"
           style="fill:#a1a1a1;fill-opacity:1"><path
             d="M 0,0 -6.337,18.591 -12.728,0 0,0 Z m 0.555,-1.665 -13.823,0 -3.131,-9.169 -1.804,-0.157 c -0.181,0 -0.271,0.127 -0.22,0.302 l 11.389,32.459 1.173,0.157 11.606,-32.616 c 0.067,-0.175 -0.039,-0.302 -0.217,-0.302 l -1.586,0 -3.387,9.326 z"
             style="fill:#a1a1a1;fill-opacity:1;fill-rule:nonzero;stroke:none"
             id="path132"
             inkscape:connector-curvature="0" /></g><g
           id="g134"
           transform="translate(522.4666,264.4802)"
           style="fill:#a1a1a1;fill-opacity:1"><path
             d="m 0,0 c 0,-0.127 -0.102,-0.229 -0.217,-0.229 l -1.379,0 c -0.117,0 -0.219,0.102 -0.219,0.229 l 0,30.813 -9.16,0 c -0.118,0 -0.221,0.109 -0.221,0.223 l 0,1.213 c 0,0.115 0.103,0.229 0.221,0.229 l 20.136,0 c 0.117,0 0.232,-0.114 0.232,-0.229 l 0,-1.213 c 0,-0.114 -0.115,-0.223 -0.232,-0.223 L 0,30.813 0,0 Z"
             style="fill:#a1a1a1;fill-opacity:1;fill-rule:nonzero;stroke:none"
             id="path136"
             inkscape:connector-curvature="0" /></g><g
           id="g138"
           transform="translate(550.3604,308.0817)"
           style="fill:#a1a1a1;fill-opacity:1"><path
             d="m 0,0 2.201,0.048 c 0.245,0.013 0.335,-0.181 0.178,-0.362 l -5.884,-7.57 -0.875,-0.042 c -0.208,-0.013 -0.31,0.156 -0.193,0.349 L 0,0 Z m -11.326,-27.712 0,-14.417 16.284,0 c 0.115,0 0.229,-0.103 0.229,-0.23 l 0,-1.242 c 0,-0.127 -0.114,-0.23 -0.229,-0.23 l -17.892,0 c -0.117,0 -0.232,0.103 -0.232,0.23 l 0,32.248 c 0,0.115 0.115,0.229 0.232,0.229 l 17.892,0 c 0.115,0 0.229,-0.114 0.229,-0.229 l 0,-1.249 c 0,-0.12 -0.114,-0.229 -0.229,-0.229 l -16.284,0 0,-13.223 14.686,0 c 0.129,0 0.232,-0.102 0.232,-0.223 l 0,-1.206 c 0,-0.115 -0.103,-0.224 -0.232,-0.224 l -14.686,-0.005 z"
             style="fill:#a1a1a1;fill-opacity:1;fill-rule:nonzero;stroke:none"
             id="path140"
             inkscape:connector-curvature="0" /></g><g
           id="g142"
           transform="translate(580.9047,267.074)"
           style="fill:#a1a1a1;fill-opacity:1"><path
             d="m 0,0 0,12.095 -6.778,0 c -0.114,0 -0.219,0.102 -0.219,0.235 l 0,1.195 c 0,0.133 0.105,0.235 0.219,0.235 l 8.388,0 c 0.13,0 0.233,-0.102 0.233,-0.235 l 0,-14.659 c -2.32,-1.122 -5.45,-1.906 -9.727,-1.906 -9.715,0 -12.704,6.117 -12.704,16.565 0,10.448 2.989,16.57 12.704,16.57 4.238,0 6.892,-0.73 8.683,-1.574 l 0.142,-1.532 c 0,-0.193 -0.142,-0.284 -0.323,-0.211 -2.59,1.061 -5.052,1.616 -8.502,1.616 -7.848,0 -10.873,-4.844 -10.873,-14.869 0,-10.008 3.025,-14.852 10.873,-14.852 2.639,0 5.785,0.362 7.884,1.327"
             style="fill:#a1a1a1;fill-opacity:1;fill-rule:nonzero;stroke:none"
             id="path144"
             inkscape:connector-curvature="0" /></g><g
           id="g146"
           transform="translate(591.3526,296.958)"
           style="fill:#a1a1a1;fill-opacity:1"><path
             d="m 0,0 c 0.13,0 0.232,-0.114 0.232,-0.229 l 0,-32.255 c 0,-0.12 -0.102,-0.223 -0.232,-0.223 l -1.366,0 c -0.127,0 -0.233,0.103 -0.233,0.223 l 0,32.255 C -1.599,-0.114 -1.493,0 -1.366,0 L 0,0 Z"
             style="fill:#a1a1a1;fill-opacity:1;fill-rule:nonzero;stroke:none"
             id="path148"
             inkscape:connector-curvature="0" /></g><g
           id="g150"
           transform="translate(610.8975,297.1693)"
           style="fill:#a1a1a1;fill-opacity:1"><path
             d="m 0,0 c 3.761,0 6.249,-0.555 7.996,-1.261 l 0.157,-0.217 0,-1.333 C 8.153,-2.992 8.01,-3.089 7.829,-3.028 5.205,-2.045 3.118,-1.701 0,-1.701 c -7.846,0 -10.861,-4.85 -10.861,-14.87 0,-10.007 3.015,-14.851 10.861,-14.851 3.118,0 5.205,0.332 7.829,1.315 0.181,0.06 0.324,-0.036 0.324,-0.224 l 0,-1.326 -0.157,-0.218 C 6.249,-32.569 3.761,-33.136 0,-33.136 c -9.703,0 -12.689,6.118 -12.689,16.565 C -12.689,-6.123 -9.703,0 0,0"
             style="fill:#a1a1a1;fill-opacity:1;fill-rule:nonzero;stroke:none"
             id="path152"
             inkscape:connector-curvature="0" /></g><g
           id="g154"
           transform="translate(635.1288,295.4681)"
           style="fill:#a1a1a1;fill-opacity:1"><path
             d="m 0,0 c -8.632,0 -10.179,-4.982 -10.179,-14.869 0,-9.881 1.547,-14.852 10.179,-14.852 8.644,0 10.177,4.971 10.177,14.852 C 10.177,-4.982 8.644,0 0,0 m 0,-31.434 c -10.502,0 -12.007,6.762 -12.007,16.565 0,9.808 1.505,16.57 12.007,16.57 10.55,0 12.019,-6.762 12.019,-16.57 0,-9.803 -1.469,-16.565 -12.019,-16.565"
             style="fill:#a1a1a1;fill-opacity:1;fill-rule:nonzero;stroke:none"
             id="path156"
             inkscape:connector-curvature="0" /></g><g
           id="g158"
           transform="translate(388.9418,242.7944)"
           style="fill:#a1a1a1;fill-opacity:1"><path
             d="m 0,0 0.078,-28.479 c 0,-0.126 -0.102,-0.235 -0.232,-0.235 l -1.417,0 c -0.115,0 -0.233,0.109 -0.233,0.235 l 0,32.249 c 0,0.126 0.118,0.229 0.233,0.229 L -0.618,3.945 18.54,-24.721 18.462,3.77 c 0,0.126 0.103,0.229 0.221,0.229 l 1.429,0 c 0.115,0 0.22,-0.103 0.22,-0.229 l 0,-32.249 c 0,-0.126 -0.105,-0.235 -0.22,-0.235 L 19.146,-28.66 0,0 Z"
             style="fill:#a1a1a1;fill-opacity:1;fill-rule:nonzero;stroke:none"
             id="path160"
             inkscape:connector-curvature="0" /></g><g
           id="g162"
           transform="translate(432.9658,225.0712)"
           style="fill:#a1a1a1;fill-opacity:1"><path
             d="M 0,0 -6.352,18.592 -12.728,0 0,0 Z m 0.54,-1.659 -13.823,0 -3.131,-9.175 -1.803,-0.157 c -0.181,0 -0.272,0.139 -0.221,0.314 l 11.404,32.46 1.158,0.144 11.61,-32.604 c 0.063,-0.175 -0.039,-0.314 -0.22,-0.314 l -1.584,0 -3.39,9.332 z"
             style="fill:#a1a1a1;fill-opacity:1;fill-rule:nonzero;stroke:none"
             id="path164"
             inkscape:connector-curvature="0" /></g><g
           id="g166"
           transform="translate(454.6609,246.9985)"
           style="fill:#a1a1a1;fill-opacity:1"><path
             d="m 0,0 c 3.761,0 6.249,-0.555 8.002,-1.261 l 0.142,-0.205 0,-1.339 c 0,-0.181 -0.142,-0.277 -0.311,-0.217 -2.639,0.983 -4.714,1.321 -7.833,1.321 -7.845,0 -10.874,-4.85 -10.874,-14.863 0,-10.014 3.029,-14.864 10.874,-14.864 3.119,0 5.194,0.344 7.833,1.321 0.169,0.066 0.311,-0.03 0.311,-0.217 l 0,-1.327 -0.142,-0.223 C 6.249,-32.568 3.761,-33.135 0,-33.135 c -9.7,0 -12.701,6.116 -12.701,16.571 C -12.701,-6.117 -9.7,0 0,0"
             style="fill:#a1a1a1;fill-opacity:1;fill-rule:nonzero;stroke:none"
             id="path168"
             inkscape:connector-curvature="0" /></g><g
           id="g170"
           transform="translate(470.767,246.7934)"
           style="fill:#a1a1a1;fill-opacity:1"><path
             d="m 0,0 c 0.115,0 0.232,-0.109 0.232,-0.229 l 0,-32.249 c 0,-0.133 -0.117,-0.235 -0.232,-0.235 l -1.378,0 c -0.118,0 -0.232,0.102 -0.232,0.235 l 0,32.249 C -1.61,-0.109 -1.496,0 -1.378,0 L 0,0 Z"
             style="fill:#a1a1a1;fill-opacity:1;fill-rule:nonzero;stroke:none"
             id="path172"
             inkscape:connector-curvature="0" /></g><g
           id="g174"
           transform="translate(489.7293,245.2973)"
           style="fill:#a1a1a1;fill-opacity:1"><path
             d="m 0,0 c -8.632,0 -10.176,-4.971 -10.176,-14.863 0,-9.887 1.544,-14.864 10.176,-14.864 8.632,0 10.18,4.977 10.18,14.864 C 10.18,-4.971 8.632,0 0,0 m 0,-31.434 c -10.499,0 -12.007,6.762 -12.007,16.571 0,9.808 1.508,16.564 12.007,16.564 10.554,0 12.008,-6.756 12.008,-16.564 0,-9.809 -1.454,-16.571 -12.008,-16.571"
             style="fill:#a1a1a1;fill-opacity:1;fill-rule:nonzero;stroke:none"
             id="path176"
             inkscape:connector-curvature="0" /></g><g
           id="g178"
           transform="translate(509.8023,242.7944)"
           style="fill:#a1a1a1;fill-opacity:1"><path
             d="m 0,0 0.09,-28.479 c 0,-0.126 -0.102,-0.235 -0.232,-0.235 l -1.418,0 c -0.114,0 -0.229,0.109 -0.229,0.235 l 0,32.249 c 0,0.126 0.115,0.229 0.229,0.229 L -0.603,3.945 18.552,-24.721 18.477,3.77 c 0,0.126 0.102,0.229 0.217,0.229 l 1.433,0 c 0.114,0 0.217,-0.103 0.217,-0.229 l 0,-32.249 c 0,-0.126 -0.103,-0.235 -0.217,-0.235 L 19.158,-28.66 0,0 Z"
             style="fill:#a1a1a1;fill-opacity:1;fill-rule:nonzero;stroke:none"
             id="path180"
             inkscape:connector-curvature="0" /></g><g
           id="g182"
           transform="translate(553.835,225.0712)"
           style="fill:#a1a1a1;fill-opacity:1"><path
             d="M 0,0 -6.346,18.592 -12.737,0 0,0 Z m 0.543,-1.659 -13.82,0 -3.131,-9.175 -1.804,-0.157 c -0.181,0 -0.271,0.139 -0.22,0.314 l 11.401,32.46 1.162,0.144 11.603,-32.604 C 5.8,-10.852 5.709,-10.991 5.528,-10.991 l -1.598,0 -3.387,9.332 z"
             style="fill:#a1a1a1;fill-opacity:1;fill-rule:nonzero;stroke:none"
             id="path184"
             inkscape:connector-curvature="0" /></g><g
           id="g186"
           transform="translate(581.9993,215.7876)"
           style="fill:#a1a1a1;fill-opacity:1"><path
             d="m 0,0 c 0.115,0 0.232,-0.109 0.232,-0.224 l 0,-1.248 C 0.232,-1.599 0.115,-1.707 0,-1.707 l -16.941,0 c -0.118,0 -0.232,0.108 -0.232,0.235 l 0,32.249 c 0,0.126 0.114,0.229 0.232,0.229 l 1.327,0 c 0.129,0 0.232,-0.103 0.232,-0.229 L -15.382,0 0,0 Z"
             style="fill:#a1a1a1;fill-opacity:1;fill-rule:nonzero;stroke:none"
             id="path188"
             inkscape:connector-curvature="0" /></g></g></g></g></svg>